<?xml version="1.0" encoding="UTF-8" standalone="no"?>
<svg width="52px" height="60px" viewBox="0 0 52 60" version="1.1" xmlns="http://www.w3.org/2000/svg" xmlns:xlink="http://www.w3.org/1999/xlink" xmlns:sketch="http://www.bohemiancoding.com/sketch/ns">
    <!-- Generator: Sketch 3.3 (11970) - http://www.bohemiancoding.com/sketch -->
    <title>food_pin copy</title>
    <desc>Created with Sketch.</desc>
    <defs></defs>
    <g id="Page-1" stroke="none" stroke-width="1" fill="none" fill-rule="evenodd" sketch:type="MSPage">
        <g id="food_pin-copy" sketch:type="MSLayerGroup">
            <g id="Page-1" sketch:type="MSShapeGroup">
                <g id="01-Home">
                    <g id="Shape-2-+-Shape">
                        <path d="M0.173869412,26.226147 C0.173869412,41.1590639 22.4747159,58.8237399 22.4747159,58.8237399 C24.2937395,60.3718575 27.2644334,60.3811665 29.0685151,58.81399 C29.0685151,58.81399 51.3628287,41.1252646 51.3628287,26.226147 C51.3621309,11.9358909 39.879504,0.310794079 25.7683491,0.310794079 C11.6571942,0.310794079 0.173869412,11.9365975 0.173869412,26.226147 L0.173869412,26.226147 Z" id="Shape-2" fill="#F47B00"></path>
                        <path d="M23.8554217,17.3493976 L23.8554217,17.8927412 L23.8554217,24.5783133 C23.6497992,24.4447872 23.4883856,24.6014056 23.1325301,24.5783133 L23.1325301,24.5783133 C22.5751647,24.6014056 22.413237,24.4447872 22.4096386,24.5783133 L22.4096386,17.8927412 C22.4096386,17.5926608 22.1708969,17.3493976 21.8712823,17.3493976 L21.5022117,17.3493976 C21.2048858,17.3493976 20.9638554,17.5899166 20.9638554,17.8927412 L20.9638554,24.5783133 C20.9674538,24.4447872 20.8057831,24.6014056 20.9638554,24.5783133 L20.2409639,24.5783133 C19.9051567,24.6014056 19.7432289,24.4447872 19.5180723,24.5783133 L19.5180723,17.8927412 C19.5180723,17.5926608 19.2733342,17.3493976 18.9775968,17.3493976 L18.7951807,17.3493976 C18.5768354,17.5787229 18.0722892,18.0505703 18.0722892,18.7951807 L18.0722892,24.5783133 C18.0722892,25.3456546 18.2892209,25.7360803 18.7951807,26.0240964 C18.6135904,25.9945381 20.0717109,27.0968434 20.2409639,29.6385542 L20.2409639,39.0361446 C20.2236145,39.4462972 20.5469558,39.7590361 20.9638554,39.7590361 L22.4096386,39.7590361 C22.7915824,39.7590361 23.1149237,39.4460482 23.1325301,39.0361446 L23.1325301,29.6385542 C23.2377831,27.6204819 24.2119197,26.4265462 24.5783133,26.0240964 C25.010249,25.8633173 25.3012048,25.4181124 25.3012048,24.5783133 L25.3012048,18.7951807 C25.3012048,18.0600321 24.7935743,17.5949076 23.8554217,17.3493976 L23.8554217,17.3493976 L23.8554217,17.3493976 Z M30.3614458,17.3493976 C28.5542169,17.3493976 26.746988,19.7502435 26.746988,22.4096386 C26.746988,24.2957157 27.2584656,25.7152576 28.1927711,26.746988 C28.5542169,27.1084337 28.9156627,27.8313253 28.9156627,29.6385542 L28.9156627,39.0361446 C28.9156627,39.3975904 29.2771084,39.7590361 29.6385542,39.7590361 L31.0843373,39.7590361 C31.4457831,39.7590361 31.8072289,39.3975904 31.8072289,39.0361446 L31.8072289,29.6385542 C31.8072289,27.8313253 32.1686747,27.1084337 32.5301205,26.746988 C33.4192313,25.7209334 33.9759036,24.247298 33.9759036,22.4096386 C33.9759036,19.7502435 32.1686747,17.3493976 30.3614458,17.3493976 L30.3614458,17.3493976 Z" id="Shape" fill="#FFFFFF"></path>
                    </g>
                </g>
            </g>
        </g>
    </g>
</svg>