<svg viewBox="0 0 22 26" xmlns="http://www.w3.org/2000/svg"><g fill="#fff" fill-rule="evenodd" transform="translate(.25.732)"><path d="m11.594 2.209c1.69-2.16 4.04-2.171 4.04-2.171 0 0 .349 2.031-1.329 3.988-1.793 2.089-3.83 1.747-3.83 1.747 0 0-.383-1.643 1.12-3.564"/><path d="m10.689 7.196c.869 0 2.483-1.159 4.583-1.159 3.615 0 5.04 2.495 5.04 2.495 0 0-2.782 1.379-2.782 4.727 0 3.776 3.465 5.077 3.465 5.077 0 0-2.422 6.613-5.694 6.613-1.503 0-2.671-.982-4.254-.982-1.613 0-3.215 1.019-4.258 1.019-2.988 0-6.762-6.273-6.762-11.316 0-4.961 3.195-7.564 6.192-7.564 1.948 0 3.46 1.09 4.473 1.09"/></g></svg>