<svg viewBox="0 0 18 18" xmlns="http://www.w3.org/2000/svg"><g fill="none" fill-rule="evenodd"><path d="m2 11.2c0 4.968 4.03 9 9 9 4.968 0 9-4.03 9-9 0-4.968-4.03-9-9-9-4.968 0-9 4.03-9 9m8.801 5c-.995 0-1.801-.809-1.801-1.8v-2.4c0-.994.809-1.8 1.801-1.8h.398c.995 0 1.801.809 1.801 1.8v2.4c0 .994-.809 1.8-1.801 1.8h-.398m0-7c-.995 0-1.801-.809-1.801-1.801v-.398c0-.995.809-1.801 1.801-1.801h.398c.995 0 1.801.809 1.801 1.801v.398c0 .995-.809 1.801-1.801 1.801h-.398" transform="translate(-2-2.2)" fill="#b2b2b2"/></g></svg>