<svg viewBox="0 0 25 19" xmlns="http://www.w3.org/2000/svg"><g fill="#555" fill-rule="evenodd"><circle cx="12.5" cy="10.5" r="4.5"/><path d="m15.625 1.655v-.571c0-.599-.467-1.084-1.042-1.084h-4.167c-.575 0-1.042.486-1.042 1.084v.571h-7.292c-1.15 0-2.083.971-2.083 2.168v13.01c0 1.197.933 2.168 2.083 2.168h20.833c1.15 0 2.083-.971 2.083-2.168v-13.01c0-1.197-.933-2.168-2.083-2.168h-7.292m-3.125 15.345c-3.589 0-6.5-2.911-6.5-6.5 0-3.589 2.911-6.5 6.5-6.5 3.589 0 6.5 2.911 6.5 6.5 0 3.589-2.911 6.5-6.5 6.5"/></g></svg>