<svg viewBox="0 0 16 16" xmlns="http://www.w3.org/2000/svg"><g fill="none" fill-rule="evenodd"><path d="m292.91 20.898c0-.417-.326-.755-.751-.755h-.036c-.415 0-.751.329-.751.755v7.72c0 .417-.329.755-.755.755h-7.72c-.417 0-.755.326-.755.751v.036c0 .415.329.751.755.751h7.72c.417 0 .755.329.755.755v7.72c0 .417.326.755.751.755h.036c.415 0 .751-.329.751-.755v-7.72c0-.417.329-.755.755-.755h7.72c.417 0 .755-.326.755-.751v-.036c0-.415-.329-.751-.755-.751h-7.72c-.417 0-.755-.329-.755-.755v-7.72" transform="matrix(.70711.70711-.70711.70711-177.12-219.75)" fill="#fff"/></g></svg>