<svg viewBox="0 0 17 17" xmlns="http://www.w3.org/2000/svg"><g fill="none" fill-rule="evenodd"><path d="m18.37 11.185l-7.556-7.556c-.272-.443-.697-.63-1.259-.63h-5.667c-1.124 0-1.889.765-1.889 1.889v5.667c0 .562.187.987.63 1.259l7.556 7.556c.272.443.697.63 1.259.63.373 0 .798-.187 1.259-.63l5.667-5.667c.443-.461.63-.886.63-1.259 0-.562-.195-.995-.63-1.259m-12.87-3.185c-.83 0-1.5-.67-1.5-1.5 0-.83.67-1.5 1.5-1.5.83 0 1.5.67 1.5 1.5 0 .83-.67 1.5-1.5 1.5" transform="translate(-2-3)" fill="#b2b2b2"/></g></svg>