<?xml version="1.0" standalone="no"?>
<!DOCTYPE svg PUBLIC "-//W3C//DTD SVG 1.1//EN" "http://www.w3.org/Graphics/SVG/1.1/DTD/svg11.dtd" >
<!--
2015-12-2: Created with FontForge (http://fontforge.org)
-->
<svg xmlns="http://www.w3.org/2000/svg" xmlns:xlink="http://www.w3.org/1999/xlink" version="1.1">
<metadata>
Created by FontForge 20150504 at Wed Dec  2 11:52:52 2015
 By Tomislav Slovenec
Copyright (c) 2015, Tomislav Slovenec
</metadata>
<defs>
<font id="foodfaves-icons" horiz-adv-x="512" >
  <font-face 
    font-family="foodfaves-icons"
    font-weight="400"
    font-stretch="normal"
    units-per-em="512"
    panose-1="2 0 5 3 0 0 0 0 0 0"
    ascent="448"
    descent="-64"
    bbox="-0.129927 -64 1024 448.25"
    underline-thickness="25.6"
    underline-position="-51.2"
    unicode-range="U+0020-F117"
  />
    <missing-glyph />
    <glyph glyph-name="space" unicode=" " horiz-adv-x="200" 
 />
    <glyph glyph-name="uniF10C" unicode="&#xf10c;" horiz-adv-x="542" 
d="M271 -64l34 34c145 133 237 219 237 341c0 69 -65 137 -135 137c-61 0 -106 -22 -136 -68c-30 46 -74 68 -135 68c-70 0 -136 -68 -136 -137c0 -122 92 -208 237 -341l34 -34z" />
    <glyph glyph-name="uniF115" unicode="&#xf115;" 
d="M0 448h512v-512h-512v512zM28 420h456v-456h-456v456z" />
    <glyph glyph-name="uniF109" unicode="&#xf109;" horiz-adv-x="358" 
d="M74 167c1 0 1 0 1 -1l8 -19c7 -19 35 -96 47 -130h24c0 1 -15 39 -22 57l-20 51l-18 48v2c6 5 16 23 8 42l-44 107c-1 2 -3 3 -5 2c-1 0 -2 -1 -2 -2v-2v-1l28 -80l-6 -2l-32 78c-1 2 -3 4 -5 3c-1 0 -2 -1 -2 -2v-3v0s24 -70 28 -81l-6 -2l-32 79c-1 2 -3 3 -5 2
c-1 0 -2 -1 -2 -2v-2l28 -81l-5 -2l-33 79c-1 2 -3 3 -5 2l-1 -1c-1 -1 -1 -3 -1 -4v0l39 -112c6 -17 27 -23 35 -23zM209 211c19 16 35 44 35 79c0 47 -26 85 -57 85s-57 -38 -57 -85c0 -35 16 -64 35 -79c14 -11 15 -25 15 -36c0 -29 -3 -114 -4 -158h23
c-1 44 -5 129 -5 158c0 12 0 23 15 36zM44 347c6 1 11 1 13 -1v51h252v-63c7 10 16 16 24 20v58c0 20 -16 36 -35 36h-231c-19 0 -35 -13 -35 -36v-72c2 3 6 6 12 7zM354 332c-20 10 -48 -19 -70 -76c-19 -48 -50 -127 -54 -138c11 -7 19 -27 13 -42c-8 -21 -24 -59 -24 -59
h25l113 309c1 3 -2 6 -3 6zM309 137v-134h-252v144c-7 1 -20 7 -24 14v-190c0 -23 16 -35 35 -35h230c19 0 35 16 35 35v233l-24 -67zM179 -15c-9 0 -16 -7 -16 -16s7 -17 16 -17s16 8 16 17s-7 16 -16 16zM163 415h39c5 0 9 5 9 9s-4 8 -9 8h-39c-5 0 -9 -4 -9 -8
s4 -9 9 -9z" />
    <glyph glyph-name="uniF111" unicode="&#xf111;" 
d="M512 224h-389l178 179l-45 45l-256 -256l256 -256l45 45l-178 179h389v64z" />
    <glyph glyph-name="uniF10D" unicode="&#xf10d;" horiz-adv-x="468" 
d="M460 379l-174 -174c-10 -10 -9 -26 0 -35l174 -174c10 -10 9 -25 0 -34v-1c-10 -10 -25 -9 -34 0l-175 175c-10 10 -25 9 -34 0l-175 -175c-10 -10 -25 -9 -34 0l-1 1c-10 10 -9 25 0 34l175 174c10 10 9 26 0 35l-175 174c-10 10 -9 25 0 34l1 1c10 10 25 9 34 0
l175 -175c10 -10 25 -9 34 0l175 175c10 10 25 9 34 0v-1c10 -10 9 -25 0 -34z" />
    <glyph glyph-name="uniF10B" unicode="&#xf10b;" 
d="M256 448c-141 0 -256 -115 -256 -256s114 -256 256 -256c141 0 256 115 256 256s-115 256 -256 256zM49 192c0 115 92 207 207 207s207 -92 207 -207s-92 -207 -207 -207s-207 92 -207 207zM220 326h46v-135l100 -71l-23 -38l-124 87v157z" />
    <glyph glyph-name="uniF106" unicode="&#xf106;" horiz-adv-x="431" 
d="M0 286c83 0 159 -32 216 -85c57 53 132 85 215 85v-265c-83 0 -158 -32 -215 -85c-57 53 -133 85 -216 85v265zM216 286c45 0 80 36 80 81s-35 81 -80 81s-81 -36 -81 -81s36 -81 81 -81z" />
    <glyph glyph-name="uniF102" unicode="&#xf102;" horiz-adv-x="674" 
d="M216 165c0 67 54 121 121 121s121 -54 121 -121s-54 -121 -121 -121s-121 54 -121 121zM421 403v16c0 16 -13 29 -28 29h-112c-15 0 -28 -13 -28 -29v-16h-197c-31 0 -56 -26 -56 -58v-351c0 -32 25 -58 56 -58h562c31 0 56 26 56 58v351c0 32 -25 58 -56 58h-197z
M337 -10c-97 0 -175 78 -175 175s78 175 175 175s175 -78 175 -175s-78 -175 -175 -175z" />
    <glyph glyph-name="uniF105" unicode="&#xf105;" horiz-adv-x="361" 
d="M0 266c0 99 81 182 181 182s180 -83 180 -182c0 -111 -159 -318 -159 -318c-12 -16 -31 -16 -43 0c0 0 -159 206 -159 318zM120 267c0 33 28 61 61 61s60 -28 60 -61s-27 -60 -60 -60s-61 27 -61 60z" />
    <glyph glyph-name="uniF117" unicode="&#xf117;" horiz-adv-x="402" 
d="M110 -64c-48 0 -73 26 -73 73v329h329v-329c0 -47 0 -73 -73 -73h-183zM402 411h-109l-37 37h-110l-36 -37h-110v-36h402v36z" />
    <glyph glyph-name="uniF113" unicode="&#xf113;" 
d="M0 43l315 314l106 -106l-314 -315h-107v107zM504 333c11 11 11 29 0 40l-67 67c-11 11 -29 11 -40 0l-52 -52l107 -107l52 52z" />
    <glyph glyph-name="uniF10F" unicode="&#xf10f;" 
d="M256 37l158 -101l-42 189l140 128l-184 16l-72 179l-72 -179l-184 -16l140 -128l-42 -189l158 101z" />
    <glyph glyph-name="uniF108" unicode="&#xf108;" 
d="M493 201c13 -8 19 -20 19 -37c0 -11 -6 -24 -19 -38l-171 -171c-14 -13 -27 -19 -38 -19c-17 0 -29 6 -37 19l-228 228c-13 8 -19 20 -19 37v171c0 34 23 57 57 57h171c17 0 29 -6 37 -19zM105 297c-25 0 -45 21 -45 46s20 45 45 45s46 -20 46 -45s-21 -46 -46 -46z" />
    <glyph glyph-name="uniF100" unicode="&#xf100;" horiz-adv-x="670" 
d="M0 409c0 22 18 39 39 39h591c22 0 40 -17 40 -39v-40c0 -22 -19 -39 -40 -39h-591c-22 0 -39 17 -39 39v40zM0 212c0 22 18 39 39 39h591c22 0 40 -17 40 -39v-40c0 -22 -19 -39 -40 -39h-591c-22 0 -39 17 -39 39v40zM0 15c0 22 18 39 39 39h591c22 0 40 -17 40 -39v-40
c0 -22 -19 -39 -40 -39h-591c-22 0 -39 17 -39 39v40z" />
    <glyph glyph-name="uniF107" unicode="&#xf107;" 
d="M99 320h-70c-16 0 -29 13 -29 29v70c0 16 13 29 29 29h70c16 0 29 -13 29 -29v-70c0 -16 -13 -29 -29 -29zM291 -64h-70c-16 0 -29 13 -29 29v70c0 16 13 29 29 29h70c16 0 29 -13 29 -29v-70c0 -16 -13 -29 -29 -29zM99 -64h-70c-16 0 -29 13 -29 29v70
c0 16 13 29 29 29h70c16 0 29 -13 29 -29v-70c0 -16 -13 -29 -29 -29zM99 128h-70c-16 0 -29 13 -29 29v70c0 16 13 29 29 29h70c16 0 29 -13 29 -29v-70c0 -16 -13 -29 -29 -29zM291 128h-70c-16 0 -29 13 -29 29v70c0 16 13 29 29 29h70c16 0 29 -13 29 -29v-70
c0 -16 -13 -29 -29 -29zM384 349v70c0 16 13 29 29 29h70c16 0 29 -13 29 -29v-70c0 -16 -13 -29 -29 -29h-70c-16 0 -29 13 -29 29zM291 320h-70c-16 0 -29 13 -29 29v70c0 16 13 29 29 29h70c16 0 29 -13 29 -29v-70c0 -16 -13 -29 -29 -29zM483 128h-70
c-16 0 -29 13 -29 29v70c0 16 13 29 29 29h70c16 0 29 -13 29 -29v-70c0 -16 -13 -29 -29 -29zM483 -64c16 0 29 13 29 29v70c0 16 -13 29 -29 29h-70c-16 0 -29 -13 -29 -29v-70c0 -16 13 -29 29 -29h70z" />
    <glyph glyph-name="uniF10A" unicode="&#xf10a;" horiz-adv-x="452" 
d="M283 388l-12 60h-271v-512h60v211h169l12 -60h211v301h-169z" />
    <glyph glyph-name="uniF114" unicode="&#xf114;" horiz-adv-x="413" 
d="M228 390c-30 -38 -22 -70 -22 -70s40 -7 75 34c33 39 26 79 26 79s-46 0 -79 -43zM210 292c-20 0 -50 21 -88 21c-59 0 -122 -51 -122 -149c0 -99 74 -222 133 -222c21 0 52 20 84 20c31 0 54 -20 84 -20c64 0 112 131 112 131s-68 25 -68 99c0 66 54 94 54 94
s-28 49 -99 49c-41 0 -73 -23 -90 -23z" />
    <glyph glyph-name="uniF104" unicode="&#xf104;" 
d="M0 192c0 141 115 256 256 256s256 -115 256 -256s-115 -256 -256 -256s-256 115 -256 256zM250 50h12c28 0 51 23 51 51v68c0 28 -23 51 -51 51h-12c-28 0 -51 -23 -51 -51v-68c0 -28 23 -51 51 -51zM250 249c-28 0 -51 23 -51 51v11c0 28 23 52 51 52h12
c28 0 51 -24 51 -52v-11c0 -28 -23 -51 -51 -51h-12z" />
    <glyph glyph-name="uniF103" unicode="&#xf103;" 
d="M256 -64c141 0 256 115 256 256s-115 256 -256 256s-256 -115 -256 -256s115 -256 256 -256zM262 320c35 0 64 -29 64 -64s-29 -64 -64 -64s-64 29 -64 64s29 64 64 64zM157 64h210c13 0 23 9 23 21c0 43 -85 66 -128 66s-128 -23 -128 -66c0 -11 10 -21 23 -21z" />
    <glyph glyph-name="uniF116" unicode="&#xf116;" 
d="M0 448h512v-512h-512v512zM199 50l-142 142l40 40l102 -102l216 216l40 -40l-256 -256z" />
    <glyph glyph-name="uniF110" unicode="&#xf110;" 
d="M219 155v-182c-3 -25 8 -37 37 -37s41 12 37 37v182h182c25 -3 37 8 37 37c0 28 -12 40 -37 37h-182v182c4 24 -8 37 -37 37s-40 -13 -37 -37v-182h-182c-26 3 -37 -9 -37 -37c0 -29 11 -40 37 -37h182z" />
    <glyph glyph-name="uniF112" unicode="&#xf112;" horiz-adv-x="1024" 
d="M0 448l512 -512l512 512h-1024z" />
    <glyph glyph-name="uniF101" unicode="&#xf101;" horiz-adv-x="540" 
d="M149 164l-116 120c-43 45 -43 119 0 164l195 -203zM344 211c43 -20 103 -6 148 39c54 54 64 132 23 173s-119 31 -173 -23c-45 -45 -59 -106 -39 -149l-275 -275l40 -40l194 194l194 -194l40 40l-194 194l42 41z" />
  </font>
</defs>
</svg>
