<?xml version="1.0" encoding="UTF-8" standalone="no"?>
<svg width="90px" height="90px" viewBox="0 0 90 90" version="1.1" xmlns="http://www.w3.org/2000/svg" xmlns:xlink="http://www.w3.org/1999/xlink" xmlns:sketch="http://www.bohemiancoding.com/sketch/ns">
    <!-- Generator: Sketch 3.3.1 (12002) - http://www.bohemiancoding.com/sketch -->
    <title>crave_hover_button</title>
    <desc>Created with Sketch.</desc>
    <defs></defs>
    <g id="Page-1" stroke="none" stroke-width="1" fill="none" fill-rule="evenodd" sketch:type="MSPage">
        <g id="01-Home" sketch:type="MSArtboardGroup" transform="translate(-1016.000000, -5699.000000)" fill="#49B570">
            <path d="M1061,5789 C1085.85281,5789 1106,5768.85281 1106,5744 C1106,5719.14719 1085.85281,5699 1061,5699 C1036.14719,5699 1016,5719.14719 1016,5744 C1016,5768.85281 1036.14719,5789 1061,5789 Z M1061,5787 C1084.74824,5787 1104,5767.74824 1104,5744 C1104,5720.25176 1084.74824,5701 1061,5701 C1037.25176,5701 1018,5720.25176 1018,5744 C1018,5767.74824 1037.25176,5787 1061,5787 Z M1053.70279,5761.36038 C1054.56197,5762.21955 1055.96026,5762.21427 1056.81797,5761.35656 L1083.88749,5734.28704 C1084.74878,5733.42575 1084.74542,5732.02597 1083.89013,5731.17068 L1082.24917,5729.52972 C1081.38934,5728.66989 1079.99882,5728.66635 1079.13959,5729.52558 L1056.81119,5751.85398 C1055.95365,5752.71152 1054.56334,5752.71155 1053.70886,5751.85708 L1044.37426,5742.52248 C1043.51843,5741.66665 1042.12307,5741.67443 1041.26778,5742.52972 L1039.62682,5744.17068 C1038.76699,5745.03051 1038.76506,5746.42264 1039.62564,5747.28323 L1053.70279,5761.36038 Z" id="crave_hover_button" sketch:type="MSShapeGroup"></path>
        </g>
    </g>
</svg>