<?xml version="1.0" encoding="UTF-8" standalone="no"?>
<svg width="90px" height="90px" viewBox="0 0 90 90" version="1.1" xmlns="http://www.w3.org/2000/svg" xmlns:xlink="http://www.w3.org/1999/xlink" xmlns:sketch="http://www.bohemiancoding.com/sketch/ns">
    <!-- Generator: Sketch 3.3.1 (12002) - http://www.bohemiancoding.com/sketch -->
    <title>crave_button</title>
    <desc>Created with Sketch.</desc>
    <defs></defs>
    <g id="Page-1" stroke="none" stroke-width="1" fill="none" fill-rule="evenodd" sketch:type="MSPage">
        <g id="01-Home" sketch:type="MSArtboardGroup" transform="translate(-1016.000000, -5569.000000)" fill="#B3B3B3">
            <path d="M1061,5659 C1085.85281,5659 1106,5638.85281 1106,5614 C1106,5589.14719 1085.85281,5569 1061,5569 C1036.14719,5569 1016,5589.14719 1016,5614 C1016,5638.85281 1036.14719,5659 1061,5659 Z M1061,5657 C1084.74824,5657 1104,5637.74824 1104,5614 C1104,5590.25176 1084.74824,5571 1061,5571 C1037.25176,5571 1018,5590.25176 1018,5614 C1018,5637.74824 1037.25176,5657 1061,5657 Z M1053.70279,5631.36038 C1054.56197,5632.21955 1055.96026,5632.21427 1056.81797,5631.35656 L1083.88749,5604.28704 C1084.74878,5603.42575 1084.74542,5602.02597 1083.89013,5601.17068 L1082.24917,5599.52972 C1081.38934,5598.66989 1079.99882,5598.66635 1079.13959,5599.52558 L1056.81119,5621.85398 C1055.95365,5622.71152 1054.56334,5622.71155 1053.70886,5621.85708 L1044.37426,5612.52248 C1043.51843,5611.66665 1042.12307,5611.67443 1041.26778,5612.52972 L1039.62682,5614.17068 C1038.76699,5615.03051 1038.76506,5616.42264 1039.62564,5617.28323 L1053.70279,5631.36038 Z" id="crave_button" sketch:type="MSShapeGroup"></path>
        </g>
    </g>
</svg>