<?xml version="1.0" encoding="UTF-8" standalone="no"?>
<svg width="90px" height="90px" viewBox="0 0 90 90" version="1.1" xmlns="http://www.w3.org/2000/svg" xmlns:xlink="http://www.w3.org/1999/xlink" xmlns:sketch="http://www.bohemiancoding.com/sketch/ns">
    <!-- Generator: Sketch 3.3.1 (12002) - http://www.bohemiancoding.com/sketch -->
    <title>not_crave_hover_button</title>
    <desc>Created with Sketch.</desc>
    <defs></defs>
    <g id="Page-1" stroke="none" stroke-width="1" fill="none" fill-rule="evenodd" sketch:type="MSPage">
        <g id="01-Home" sketch:type="MSArtboardGroup" transform="translate(-333.000000, -5699.000000)" fill="#C91E27">
            <path d="M378,5789 C402.852814,5789 423,5768.85281 423,5744 C423,5719.14719 402.852814,5699 378,5699 C353.147186,5699 333,5719.14719 333,5744 C333,5768.85281 353.147186,5789 378,5789 Z M378,5787 C401.748244,5787 421,5767.74824 421,5744 C421,5720.25176 401.748244,5701 378,5701 C354.251756,5701 335,5720.25176 335,5744 C335,5767.74824 354.251756,5787 378,5787 Z M359.950562,5759.51748 C359.180559,5760.28748 359.182365,5761.5377 359.957307,5762.31265 L361.398032,5763.75337 C362.17176,5764.5271 363.428084,5764.52523 364.193203,5763.76012 L376.961126,5750.99219 C377.731129,5750.22219 378.984434,5750.22707 379.749552,5750.99219 L392.517476,5763.76012 C393.287478,5764.53012 394.537704,5764.52831 395.312646,5763.75337 L396.753372,5762.31265 C397.527099,5761.53892 397.525234,5760.28259 396.760116,5759.51748 L383.992192,5746.74955 C383.22219,5745.97955 383.227074,5744.72624 383.992192,5743.96113 L396.760116,5731.1932 C397.530119,5730.4232 397.528313,5729.17297 396.753372,5728.39803 L395.312646,5726.95731 C394.538918,5726.18358 393.282594,5726.18544 392.517476,5726.95056 L379.749552,5739.71849 C378.979549,5740.48849 377.726245,5740.4836 376.961126,5739.71849 L364.193203,5726.95056 C363.4232,5726.18056 362.172974,5726.18237 361.398032,5726.95731 L359.957307,5728.39803 C359.183579,5729.17176 359.185444,5730.42808 359.950562,5731.1932 L372.718486,5743.96113 C373.488488,5744.73113 373.483604,5745.98443 372.718486,5746.74955 L359.950562,5759.51748 Z" id="not_crave_hover_button" sketch:type="MSShapeGroup"></path>
        </g>
    </g>
</svg>