<?xml version="1.0" encoding="UTF-8" standalone="no"?>
<svg width="90px" height="90px" viewBox="0 0 90 90" version="1.1" xmlns="http://www.w3.org/2000/svg" xmlns:xlink="http://www.w3.org/1999/xlink" xmlns:sketch="http://www.bohemiancoding.com/sketch/ns">
    <!-- Generator: Sketch 3.3.1 (12002) - http://www.bohemiancoding.com/sketch -->
    <title>not_crave_button</title>
    <desc>Created with Sketch.</desc>
    <defs></defs>
    <g id="Page-1" stroke="none" stroke-width="1" fill="none" fill-rule="evenodd" sketch:type="MSPage">
        <g id="01-Home" sketch:type="MSArtboardGroup" transform="translate(-333.000000, -5569.000000)" fill="#B3B3B3">
            <path d="M378,5659 C402.852814,5659 423,5638.85281 423,5614 C423,5589.14719 402.852814,5569 378,5569 C353.147186,5569 333,5589.14719 333,5614 C333,5638.85281 353.147186,5659 378,5659 Z M378,5657 C401.748244,5657 421,5637.74824 421,5614 C421,5590.25176 401.748244,5571 378,5571 C354.251756,5571 335,5590.25176 335,5614 C335,5637.74824 354.251756,5657 378,5657 Z M359.950562,5629.51748 C359.180559,5630.28748 359.182365,5631.5377 359.957307,5632.31265 L361.398032,5633.75337 C362.17176,5634.5271 363.428084,5634.52523 364.193203,5633.76012 L376.961126,5620.99219 C377.731129,5620.22219 378.984434,5620.22707 379.749552,5620.99219 L392.517476,5633.76012 C393.287478,5634.53012 394.537704,5634.52831 395.312646,5633.75337 L396.753372,5632.31265 C397.527099,5631.53892 397.525234,5630.28259 396.760116,5629.51748 L383.992192,5616.74955 C383.22219,5615.97955 383.227074,5614.72624 383.992192,5613.96113 L396.760116,5601.1932 C397.530119,5600.4232 397.528313,5599.17297 396.753372,5598.39803 L395.312646,5596.95731 C394.538918,5596.18358 393.282594,5596.18544 392.517476,5596.95056 L379.749552,5609.71849 C378.979549,5610.48849 377.726245,5610.4836 376.961126,5609.71849 L364.193203,5596.95056 C363.4232,5596.18056 362.172974,5596.18237 361.398032,5596.95731 L359.957307,5598.39803 C359.183579,5599.17176 359.185444,5600.42808 359.950562,5601.1932 L372.718486,5613.96113 C373.488488,5614.73113 373.483604,5615.98443 372.718486,5616.74955 L359.950562,5629.51748 Z" id="not_crave_button" sketch:type="MSShapeGroup"></path>
        </g>
    </g>
</svg>