<?xml version="1.0" encoding="UTF-8" standalone="no"?>
<svg width="50px" height="50px" viewBox="0 0 50 50" version="1.1" xmlns="http://www.w3.org/2000/svg" xmlns:xlink="http://www.w3.org/1999/xlink" xmlns:sketch="http://www.bohemiancoding.com/sketch/ns">
    <!-- Generator: Sketch 3.3.1 (12002) - http://www.bohemiancoding.com/sketch -->
    <title>Oval 82 Copy 2</title>
    <desc>Created with Sketch.</desc>
    <defs></defs>
    <g id="C-Crave-Search" stroke="none" stroke-width="1" fill="none" fill-rule="evenodd" sketch:type="MSPage">
        <g id="C02-Crave-Search---Crave-or-not-B-Copy" sketch:type="MSArtboardGroup" transform="translate(-196.000000, -426.000000)" fill="#FFFFFF">
            <path d="M221,476 C234.807119,476 246,464.807119 246,451 C246,437.192881 234.807119,426 221,426 C207.192881,426 196,437.192881 196,451 C196,464.807119 207.192881,476 221,476 Z M221,473 C233.150264,473 243,463.150264 243,451 C243,438.849736 233.150264,429 221,429 C208.849736,429 199,438.849736 199,451 C199,463.150264 208.849736,473 221,473 Z M216.972159,460.066416 C217.401749,460.496006 218.093625,460.500632 218.529748,460.064509 L232.064509,446.529748 C232.495152,446.099105 232.493472,445.399215 232.065827,444.97157 L231.245346,444.15109 C230.815431,443.721174 230.11352,443.726055 229.690559,444.149016 L218.526357,455.313218 C218.097587,455.741989 217.397939,455.737514 216.975193,455.314769 L212.30789,450.647466 C211.879977,450.219552 211.182299,450.223444 210.754654,450.65109 L209.934173,451.47157 C209.504258,451.901485 209.503293,452.597549 209.933584,453.027841 L216.972159,460.066416 Z" id="Oval-82-Copy-2" sketch:type="MSShapeGroup"></path>
        </g>
    </g>
</svg>