<?xml version="1.0" encoding="UTF-8" standalone="no"?>
<svg width="50px" height="50px" viewBox="0 0 50 50" version="1.1" xmlns="http://www.w3.org/2000/svg" xmlns:xlink="http://www.w3.org/1999/xlink" xmlns:sketch="http://www.bohemiancoding.com/sketch/ns">
    <!-- Generator: Sketch 3.3.1 (12002) - http://www.bohemiancoding.com/sketch -->
    <title>Oval 82</title>
    <desc>Created with Sketch.</desc>
    <defs></defs>
    <g id="C-Crave-Search" stroke="none" stroke-width="1" fill="none" fill-rule="evenodd" sketch:type="MSPage">
        <g id="C02-Crave-Search---Crave-or-not-B-Copy" sketch:type="MSArtboardGroup" transform="translate(-71.000000, -426.000000)" fill="#FFFFFF">
            <path d="M96,476 C109.807119,476 121,464.807119 121,451 C121,437.192881 109.807119,426 96,426 C82.1928813,426 71,437.192881 71,451 C71,464.807119 82.1928813,476 96,476 Z M96,473 C108.150264,473 118,463.150264 118,451 C118,438.849736 108.150264,429 96,429 C83.8497355,429 74,438.849736 74,451 C74,463.150264 83.8497355,473 96,473 Z M85.5584322,458.774036 C85.1312023,459.201266 85.1356488,459.898389 85.5632943,460.326034 L86.3837745,461.146514 C86.8136897,461.57643 87.5147145,461.572435 87.9357729,461.151377 L95.1055527,453.981597 C95.5327826,453.554367 96.2316306,453.560538 96.652689,453.981597 L103.822469,461.151377 C104.249699,461.578606 104.946822,461.57416 105.374467,461.146514 L106.194947,460.326034 C106.624863,459.896119 106.620868,459.195094 106.19981,458.774036 L99.0300298,451.604256 C98.6027999,451.177026 98.6089713,450.478178 99.0300298,450.05712 L106.19981,442.88734 C106.627039,442.46011 106.622593,441.762987 106.194947,441.335341 L105.374467,440.514861 C104.944552,440.084946 104.243527,440.088941 103.822469,440.509999 L96.652689,447.679779 C96.2254591,448.107009 95.5266112,448.100837 95.1055527,447.679779 L87.9357729,440.509999 C87.508543,440.082769 86.81142,440.087216 86.3837745,440.514861 L85.5632943,441.335341 C85.1333791,441.765257 85.1373737,442.466281 85.5584322,442.88734 L92.728212,450.05712 C93.1554419,450.48435 93.1492704,451.183198 92.728212,451.604256 L85.5584322,458.774036 Z" id="Oval-82" sketch:type="MSShapeGroup"></path>
        </g>
    </g>
</svg>