<?xml version="1.0" encoding="UTF-8" standalone="no"?>
<svg width="578px" height="381px" viewBox="0 0 578 381" version="1.1" xmlns="http://www.w3.org/2000/svg" xmlns:xlink="http://www.w3.org/1999/xlink" xmlns:sketch="http://www.bohemiancoding.com/sketch/ns" fill="transparent">
    <!-- Generator: Sketch 3.3.2 (12043) - http://www.bohemiancoding.com/sketch -->
    <title>Mask</title>
    <desc>Created with Sketch.</desc>
    <defs>
    </defs>

    <g id="mask-path-1">
        <path d="M239.711612,13.1583596 C235.981327,13.0709 232.957333,16.0181986 232.957333,19.7553644 L232.957333,122.644044 C232.957333,125.717511 230.41184,128.205556 227.258347,128.205556 L219.155733,128.205556 C216.010347,128.205556 213.456747,125.717511 213.456747,122.644044 L213.456747,19.7553644 C213.456747,16.0244797 210.429083,13 206.708537,13 L197.404956,13 C193.678023,13 190.656747,16.0181986 190.656747,19.7553644 L190.656747,122.644044 C190.656747,125.717511 188.1072,128.205556 184.95776,128.205556 L177.049707,128.205556 C173.90432,128.205556 171.35072,125.717511 171.35072,122.644044 L171.35072,19.7553644 C171.35072,16.0244797 168.326889,13 164.598612,13 L162.076693,13 C152.956693,16.6430667 145,24.1388444 145,32.8924889 L145,132.983867 C145,140.028711 148.421013,146.231022 153.649813,150.317111 C153.53632,150.336889 182.174444,167.848133 184.569964,211.129822 L184.569964,357.876978 C184.569964,364.031822 189.669058,369 195.967938,369 L207.480809,369 C213.779689,369 218.878782,364.027867 218.878782,357.876978 L218.878782,211.129822 C220.816276,176.166667 241.821973,157.199778 247.65472,152.116889 C254.411627,148.252311 259,141.179778 259,132.983867 L259,32.8924889 C259,24.2891556 250.994667,16.9001778 241.898987,13.2096444 L239.711612,13.1583596 Z M345.487879,13 C310.963184,13 283,51.1398904 283,98.1917466 C283,123.349359 291.040274,145.900232 303.775422,161.485294 C303.747139,161.493205 328.759275,187.48545 328.759275,211.128068 L328.759275,357.876854 C328.759275,364.031767 333.837981,369 340.120708,369 L351.586352,369 C357.865038,369 362.947784,364.027811 362.947784,357.876854 L362.947784,204.237414 C365.9942,182.70313 387.309425,161.497161 387.309425,161.497161 C399.955686,145.876499 408,123.345404 408,98.1917466 C408,51.1398904 380.016614,13 345.487879,13 Z M66,333 C78.7025492,333 89,322.702549 89,310 C89,297.297451 78.7025492,287 66,287 C53.2974508,287 43,297.297451 43,310 C43,322.702549 53.2974508,333 66,333 Z M470,155 C482.702549,155 493,144.702549 493,132 C493,119.297451 482.702549,109 470,109 C457.297451,109 447,119.297451 447,132 C447,144.702549 457.297451,155 470,155 Z M480,216 C487.179702,216 493,210.179702 493,203 C493,195.820298 487.179702,190 480,190 C472.820298,190 467,195.820298 467,203 C467,210.179702 472.820298,216 480,216 Z M549,75 C556.179702,75 562,69.1797017 562,62 C562,54.8202983 556.179702,49 549,49 C541.820298,49 536,54.8202983 536,62 C536,69.1797017 541.820298,75 549,75 Z M30,276 C37.1797017,276 43,270.179702 43,263 C43,255.820298 37.1797017,250 30,250 C22.8202983,250 17,255.820298 17,263 C17,270.179702 22.8202983,276 30,276 Z" id="path-1"></path>
    </g>

    <circle id="mask-circle-1" r="0" cx= "289" cy="190.5" />

    <g>
        <mask id="mask-svg1" sketch:name="Mask">
            <use xlink:href="#mask-path-1" fill="white"></use>
        </mask>
        <mask id="mask-svg1-1">
            <rect width="100%" height="100%" fill="white" />
            <use xlink:href="#mask-circle-1" fill="black"></use>
        </mask>
        <rect width="100%" height="100%" fill="#FFFFFF" />
        <image mask="url(#mask-svg1)" xlink:href="svg_bg/bg_1.jpg" x="0" y="0" height="381px" width="578px"/>
        <rect id="test" width="578px" height="381px" fill="white" mask="url(#mask-svg1-1)" />
    </g>
</svg>
