<?xml version="1.0" encoding="UTF-8" standalone="no"?>
<svg width="578px" height="381px" viewBox="0 0 578 381" version="1.1" xmlns="http://www.w3.org/2000/svg" xmlns:xlink="http://www.w3.org/1999/xlink" xmlns:sketch="http://www.bohemiancoding.com/sketch/ns" fill="transparent">
    <!-- Generator: Sketch 3.3.2 (12043) - http://www.bohemiancoding.com/sketch -->
    <title>Mask</title>
    <desc>Created with Sketch.</desc>
    <defs></defs>

    <g id="mask-path-2">
        <path d="M289.947541,352.081081 C381.527217,352.081081 455.767213,277.966057 455.767213,186.540541 C455.767213,95.1150245 381.527217,21 289.947541,21 C198.367865,21 124.127869,95.1150245 124.127869,186.540541 C124.127869,277.966057 198.367865,352.081081 289.947541,352.081081 Z M78.229908,94.7837838 C89.7345467,94.7837838 99.4918033,85.042952 99.4918033,73.5576796 C99.4918033,61.0111021 89.7345467,51.2702703 78.229908,51.2702703 C65.6621746,51.2702703 55.904918,61.0111021 55.904918,73.5576796 C55.904918,85.042952 65.6621746,94.7837838 78.229908,94.7837838 Z M33.6954818,171.405405 C45.2001204,171.405405 54.957377,161.664574 54.957377,150.179301 C54.957377,137.632724 45.2001204,127.891892 33.6954818,127.891892 C21.1277484,127.891892 11.3704918,137.632724 11.3704918,150.179301 C11.3704918,161.664574 21.1277484,171.405405 33.6954818,171.405405 Z M12.8535994,94.7837838 C19.1210944,94.7837838 24.6360656,89.2780962 24.6360656,83.0211516 C24.6360656,75.6948767 19.1210944,70.1891892 12.8535994,70.1891892 C5.51497113,70.1891892 0,75.6948767 0,83.0211516 C0,89.2780962 5.51497113,94.7837838 12.8535994,94.7837838 Z M497.994583,371 C504.262078,371 509.777049,365.494312 509.777049,359.237368 C509.777049,351.911093 504.262078,346.405405 497.994583,346.405405 C490.655955,346.405405 485.140984,351.911093 485.140984,359.237368 C485.140984,365.494312 490.655955,371 497.994583,371 Z M532.102039,308.567568 C543.606678,308.567568 553.363934,298.826736 553.363934,287.341463 C553.363934,274.794886 543.606678,265.054054 532.102039,265.054054 C519.534306,265.054054 509.777049,274.794886 509.777049,287.341463 C509.777049,298.826736 519.534306,308.567568 532.102039,308.567568 Z M566.217534,358.702703 C572.485029,358.702703 578,353.197015 578,346.940071 C578,339.613796 572.485029,334.108108 566.217534,334.108108 C558.878906,334.108108 553.363934,339.613796 553.363934,346.940071 C553.363934,353.197015 558.878906,358.702703 566.217534,358.702703 Z" id="path-1"></path>
    </g>

    <circle id="mask-circle-2" r="0" cx= "289" cy="190.5" />

    <g>
        <mask id="mask-svg2" sketch:name="Mask">
            <use xlink:href="#mask-path-2" fill="white"></use>
        </mask>
        <mask id="mask-svg2-2">
            <rect width="100%" height="100%" fill="white" />
            <use xlink:href="#mask-circle-2" fill="black"></use>
        </mask>
        <rect width="100%" height="100%" fill="#FFFFFF" />
        <image mask="url(#mask-svg2)" xlink:href="svg_bg/bg_2.jpg" x="0" y="0" height="381px" width="578px"/>
        <rect id="test" width="578px" height="381px" fill="white" mask="url(#mask-svg2-2)" />
    </g>

</svg>
