<?xml version="1.0" encoding="UTF-8" standalone="no"?>
<svg width="578px" height="381px" viewBox="0 0 578 381" version="1.1" xmlns="http://www.w3.org/2000/svg" xmlns:xlink="http://www.w3.org/1999/xlink" xmlns:sketch="http://www.bohemiancoding.com/sketch/ns" fill="transparent">
    <!-- Generator: Sketch 3.3.3 (12072) - http://www.bohemiancoding.com/sketch -->
    <title>Mask 1</title>
    <desc>Created with Sketch.</desc>
    <defs>
    </defs>

    <g id="mask-path-0">
        <path d="M161.725,207.742857 C162.55643,207.746455 162.968301,208.016408 163.575,208.669388 L169.125,222.567347 C173.85793,236.204451 193.359413,292.875602 202.425,318 L220,318 C219.719179,317.303146 209.384952,289.661286 204.275,276.306122 L189.475,238.318367 L176.525,203.110204 C176.22931,203.100765 176.329158,202.661307 176.525,202.183673 C180.703731,198.411128 188.042529,184.95118 183,170.681633 L150.625,92.8530612 C150.362543,91.3781773 148.789943,90.6499339 146.925,91 C146.655701,91.422123 146.106539,91.9369158 146,92.8530612 C145.669706,92.9099997 145.607301,93.2113418 146,93.7795918 C145.551137,93.9270293 145.582339,94.3225408 146,94.7061224 L165.425,154.004082 L161.725,154.930612 L138.6,97.4857143 C138.206098,95.9924783 136.539891,95.2642349 134.9,95.6326531 C134.455572,96.0238681 133.90017,96.5512168 133.975,97.4857143 C133.307325,97.8758665 133.282363,98.7045573 133.05,99.3387755 C133.519501,99.3260754 133.531982,99.3637432 133.975,99.3387755 C133.538223,99.401411 150.843059,150.234058 153.4,158.636735 L149.7,159.563265 L126.575,102.118367 C126.043413,100.544 124.43337,99.7906445 122.875,100.265306 C122.218002,100.644447 121.725004,101.109016 121.025,102.118367 C121.119678,102.515279 121.100957,103.187021 121.025,103.971429 L141.375,163.269388 L137.675,164.195918 L114.55,106.75102 C113.824563,105.133189 112.183318,104.430057 110.85,104.897959 C110.535833,105.064131 110.136442,105.271304 109.925,105.82449 C109.069321,106.326002 108.800981,107.418367 109,108.604082 C109.169169,108.45423 109.18165,108.48562 109,108.604082 L136.75,191.065306 C141.619637,204.017347 156.003932,208.085465 161.725,207.742857 Z M263.153846,174.923077 C277.254395,162.898122 289,142.795105 289,116.769231 C289,82.1667615 270.193382,54.0250427 246.538462,54 C223.781799,54.0250427 205,82.1667615 205,116.769231 C205,142.795105 216.677353,163.386454 230.846154,174.923077 C240.410548,182.8321 241.514995,193.638019 241.923077,201.692308 C241.514995,222.900398 239.504654,285.851451 238.230769,318 L255.769231,318 C255.277146,285.851451 252.4788,222.881616 252.076923,201.692308 C252.4788,193.062038 252.410548,184.196927 263.153846,174.923077 Z M144.256198,72.7865169 C148.138419,71.7179858 151.498388,72.6924659 153.512397,73.7078652 L153.512397,36.8539326 L340.487603,36.8539326 L340.487603,82 C346.163036,75.0037328 352.882973,70.4748991 359,67.258427 L359,25.7977528 C359,11.6437876 347.274652,0 333.082645,0 L160.917355,0 C146.75047,0 135,9.15761408 135,25.7977528 L135,77.3932584 C136.544958,75.9219928 139.276895,73.4857926 144.256198,72.7865169 Z M375.216216,86.8492063 C360.944193,79.053023 339.668577,101.18891 323.252252,142.325397 C308.75706,177.923302 285.96759,235.989176 283.351351,244.031746 C291.43254,249.211663 297.161315,264.048486 292.630631,274.543651 C286.645997,290.041194 275,318 275,318 L292.630631,318 L378,91.4722222 C378.771238,88.8709547 376.195802,86.7101304 375.216216,86.8492063 Z M340.487603,231 L340.487603,331 L153.512397,331 L153.512397,223.592593 C147.818123,222.796961 137.844983,218.380061 135,213.407407 L135,355.074074 C135,371.895649 146.75047,381 160.917355,381 L333.082645,381 C347.274652,381 359,369.259351 359,355.074074 L359,181 L340.487603,231 Z M247,343 C239.81612,343 234,348.830721 234,356 C234,363.181818 239.81612,369 247,369 C254.196429,369 260,363.188088 260,356 C260,348.830721 254.196429,343 247,343 Z M232.533333,25 L261.466667,25 C265.114026,25 268,22.065123 268,18.5 C268,14.8972504 265.114026,12 261.466667,12 L232.533333,12 C228.942316,12 226,14.8972504 226,18.5 C226,22.065123 228.885974,25 232.533333,25 Z M12,287 C18.627417,287 24,281.627417 24,275 C24,268.372583 18.627417,263 12,263 C5.372583,263 -4.20996571e-13,268.372583 -4.20996571e-13,275 C-4.20996571e-13,281.627417 5.372583,287 12,287 Z M492,101 C498.627417,101 504,95.627417 504,89 C504,82.372583 498.627417,77 492,77 C485.372583,77 480,82.372583 480,89 C480,95.627417 485.372583,101 492,101 Z M428,231 C434.627417,231 440,225.627417 440,219 C440,212.372583 434.627417,207 428,207 C421.372583,207 416,212.372583 416,219 C416,225.627417 421.372583,231 428,231 Z M419.5,175 C431.374122,175 441,165.374122 441,153.5 C441,141.625878 431.374122,132 419.5,132 C407.625878,132 398,141.625878 398,153.5 C398,165.374122 407.625878,175 419.5,175 Z M45.5,340 C57.3741221,340 67,330.374122 67,318.5 C67,306.625878 57.3741221,297 45.5,297 C33.6258779,297 24,306.625878 24,318.5 C24,330.374122 33.6258779,340 45.5,340 Z" id="path-1"></path>
    </g>

    <circle id="mask-circle-0" r="0" cx= "289" cy="190.5" />

    <g>
      <mask id="mask-svg0" sketch:name="Mask">
          <use xlink:href="#mask-path-0" fill="white"></use>
      </mask>
      <mask id="mask-svg0-0">
        <rect width="100%" height="100%" fill="white" />
        <use xlink:href="#mask-circle-0" fill="black"></use>
      </mask>
      <!-- <use id="Mask" fill="#D8D8D8" sketch:type="MSShapeGroup" xlink:href="#path-1"></use> -->
      <rect width="100%" height="100%" fill="#FFFFFF" />
      <image mask="url(#mask-svg0)" xlink:href="svg_bg/bg_7.jpg" x="0" y="0" height="381px" width="578px"/>
      <rect id="test" width="578px" height="381px" fill="white" mask="url(#mask-svg0-0)" />
    </g>
</svg>
