<?xml version="1.0" encoding="UTF-8" standalone="no"?>
<svg width="578px" height="381px" viewBox="0 0 578 381" version="1.1" xmlns="http://www.w3.org/2000/svg" xmlns:xlink="http://www.w3.org/1999/xlink" xmlns:sketch="http://www.bohemiancoding.com/sketch/ns" fill="transparent">
    <!-- Generator: Sketch 3.3.2 (12043) - http://www.bohemiancoding.com/sketch -->
    <title>Mask</title>
    <desc>Created with Sketch.</desc>
    <defs></defs>

    <g id="mask-path-3">
        <path d="M449,150 L449,251.597301 C449,301.525333 408.526953,342 358.603087,342 L191.396913,342 C141.472077,342 101,301.520653 101,251.597301 L101,150 L63.0099861,150 C50.8542064,150 41,140.152936 41,128 C41,115.849736 50.8530603,106 63.0099861,106 L101,106 L101,64 L449,64 L449,106 L482.990014,106 C495.145794,106 505,115.847064 505,128 C505,140.150264 495.14694,150 482.990014,150 L449,150 L449,150 Z M565,98 C572.179702,98 578,92.1797017 578,85 C578,77.8202983 572.179702,72 565,72 C557.820298,72 552,77.8202983 552,85 C552,92.1797017 557.820298,98 565,98 Z M13,335 C20.1797017,335 26,329.179702 26,322 C26,314.820298 20.1797017,309 13,309 C5.82029825,309 0,314.820298 0,322 C0,329.179702 5.82029825,335 13,335 Z M510,46 C522.702549,46 533,35.7025492 533,23 C533,10.2974508 522.702549,0 510,0 C497.297451,0 487,10.2974508 487,23 C487,35.7025492 497.297451,46 510,46 Z M75,381 C87.7025492,381 98,370.702549 98,358 C98,345.297451 87.7025492,335 75,335 C62.2974508,335 52,345.297451 52,358 C52,370.702549 62.2974508,381 75,381 Z" id="path-1"></path>
    </g>

    <circle id="mask-circle-3" r="0" cx= "289" cy="190.5" />

    <g>
        <mask id="mask-svg3" sketch:name="Mask">
            <use xlink:href="#mask-path-3" fill="white"></use>
        </mask>
        <mask id="mask-svg3-3">
            <rect width="100%" height="100%" fill="white" />
            <use xlink:href="#mask-circle-3" fill="black"></use>
        </mask>
        <rect width="100%" height="100%" fill="#FFFFFF" />
        <image mask="url(#mask-svg3)" xlink:href="svg_bg/bg_4.jpg" x="0" y="0" height="381px" width="578px"/>
        <rect id="test" width="578px" height="381px" fill="white" mask="url(#mask-svg3-3)" />
    </g>

</svg>
