<?xml version="1.0" encoding="UTF-8" standalone="no"?>
<svg width="578px" height="381px" viewBox="0 0 578 381" version="1.1" xmlns="http://www.w3.org/2000/svg" xmlns:xlink="http://www.w3.org/1999/xlink" xmlns:sketch="http://www.bohemiancoding.com/sketch/ns" fill="transparent">
    <!-- Generator: Sketch 3.3.2 (12043) - http://www.bohemiancoding.com/sketch -->
    <title>Mask</title>
    <desc>Created with Sketch.</desc>
    <defs></defs>

    <g id="mask-path-4">
        <path d="M957,426.878788 L957,473.683302 C957,497.054169 938.049531,516 914.677303,516 L524.322697,516 C500.948517,516 482,497.055953 482,473.683302 L482,426.674523 L482,426.674523 L459.553597,422.089511 C447.649874,419.657999 438,407.823784 438,395.680481 L438,350.319519 C438,338.165727 447.654187,326.34112 459.553597,323.910489 L482,319.325477 L482,280.316698 C482,256.945831 500.950469,238 524.322697,238 L914.677303,238 C938.051483,238 957,256.944047 957,280.316698 L957,319.121212 L980.446403,323.910489 C992.350126,326.342001 1002,338.176216 1002,350.319519 L1002,395.680481 C1002,407.834273 992.345813,419.65888 980.446403,422.089511 L957,426.878788 L957,426.878788 Z M425.565217,252 C432.179702,252 438,246.179702 438,239.565217 C438,231.820298 432.179702,226 425.565217,226 C417.820298,226 412,231.820298 412,239.565217 C412,246.179702 417.820298,252 425.565217,252 Z M1016.56522,533 C1023.1797,533 1029,527.179702 1029,520.565217 C1029,512.820298 1023.1797,507 1016.56522,507 C1008.8203,507 1003,512.820298 1003,520.565217 C1003,527.179702 1008.8203,533 1016.56522,533 Z M389.560976,324 C401.702549,324 412,313.702549 412,301.560976 C412,288.297451 401.702549,278 389.560976,278 C376.297451,278 366,288.297451 366,301.560976 C366,313.702549 376.297451,324 389.560976,324 Z M1053.56098,473 C1065.70255,473 1076,462.702549 1076,450.560976 C1076,437.297451 1065.70255,427 1053.56098,427 C1040.29745,427 1030,437.297451 1030,450.560976 C1030,462.702549 1040.29745,473 1053.56098,473 Z" id="path-1"></path>
        <path d="M481.123944,229.582075 L481.123944,267.711893 C481.123944,286.735042 465.69666,302.156352 446.669692,302.156352 L128.888055,302.156352 C109.859497,302.156352 94.4338028,286.729604 94.4338028,267.711893 L94.4338028,229.415735 L94.4338028,229.415735 L76.1605336,225.682012 C66.4698974,223.701954 58.6140845,214.082435 58.6140845,204.176288 L58.6140845,167.237393 C58.6140845,157.340168 66.4734088,147.71101 76.1605336,145.731668 L94.4338028,141.997945 L94.4338028,110.216445 C94.4338028,91.1932963 109.861086,75.771987 128.888055,75.771987 L446.669692,75.771987 C465.69825,75.771987 481.123944,91.198735 481.123944,110.216445 L481.123944,141.831606 L500.211297,145.731668 C509.901934,147.711727 517.757746,157.331246 517.757746,167.237393 L517.757746,204.176288 C517.757746,214.073513 509.898422,223.702671 500.211297,225.682012 L481.123944,229.582075 L481.123944,229.582075 Z M48.4911206,87.1726384 C53.8758699,87.1726384 58.6140845,82.4329819 58.6140845,77.046594 C58.6140845,70.7396566 53.8758699,66 48.4911206,66 C42.186102,66 37.4478873,70.7396566 37.4478873,77.046594 C37.4478873,82.4329819 42.186102,87.1726384 48.4911206,87.1726384 Z M529.615064,316 C534.999814,316 539.738028,311.260343 539.738028,305.873956 C539.738028,299.567018 534.999814,294.827362 529.615064,294.827362 C523.310046,294.827362 518.571831,299.567018 518.571831,305.873956 C518.571831,311.260343 523.310046,316 529.615064,316 Z M19.1806252,145.80456 C29.0648922,145.80456 37.4478873,137.419014 37.4478873,127.531739 C37.4478873,116.730823 29.0648922,108.345277 19.1806252,108.345277 C8.38299512,108.345277 -6.39488462e-14,116.730823 -6.39488462e-14,127.531739 C-6.39488462e-14,137.419014 8.38299512,145.80456 19.1806252,145.80456 Z M559.732738,267.140065 C569.617005,267.140065 578,258.754519 578,248.867244 C578,238.066328 569.617005,229.680782 559.732738,229.680782 C548.935108,229.680782 540.552113,238.066328 540.552113,248.867244 C540.552113,258.754519 548.935108,267.140065 559.732738,267.140065 Z" id="path-3"></path>
    </g>

    <circle id="mask-circle-4" r="0" cx= "289" cy="190.5" />

    <g>
        <mask id="mask-svg4" sketch:name="Mask">
            <use xlink:href="#mask-path-4" fill="white"></use>
        </mask>
        <mask id="mask-svg4-4">
            <rect width="100%" height="100%" fill="white" />
            <use xlink:href="#mask-circle-4" fill="black"></use>
        </mask>
        <rect width="100%" height="100%" fill="#FFFFFF" />
        <image mask="url(#mask-svg4)" xlink:href="svg_bg/bg_3.jpg" x="0" y="0" height="381px" width="578px"/>
        <rect id="test" width="578px" height="381px" fill="white" mask="url(#mask-svg4-4)" />
    </g>
</svg>
