<?xml version="1.0" encoding="UTF-8" standalone="no"?>
<svg width="21px" height="25px" viewBox="0 0 21 25" version="1.1" xmlns="http://www.w3.org/2000/svg" xmlns:xlink="http://www.w3.org/1999/xlink" xmlns:sketch="http://www.bohemiancoding.com/sketch/ns">
    <!-- Generator: Sketch 3.3.1 (12002) - http://www.bohemiancoding.com/sketch -->
    <title>Fill 1</title>
    <desc>Created with Sketch.</desc>
    <defs></defs>
    <g id="Page-1" stroke="none" stroke-width="1" fill="none" fill-rule="evenodd" sketch:type="MSPage">
        <g id="01-Home" sketch:type="MSArtboardGroup" transform="translate(-1044.000000, -40.000000)" fill="#FFFFFF">
            <g id="Group-Copy-5" sketch:type="MSLayerGroup" transform="translate(928.000000, 31.000000)">
                <path d="M127.594493,11.2085246 C129.284465,9.04803279 131.633972,9.0375 131.633972,9.0375 C131.633972,9.0375 131.983366,11.0687295 130.304549,13.0254508 C128.511901,15.1147951 126.47431,14.7728689 126.47431,14.7728689 C126.47431,14.7728689 126.091704,13.1297131 127.594493,11.2085246 Z M126.689211,16.1957787 C127.558704,16.1957787 129.172197,15.0365984 131.272493,15.0365984 C134.887831,15.0365984 136.310042,17.5318033 136.310042,17.5318033 C136.310042,17.5318033 133.528366,18.9112705 133.528366,22.2584426 C133.528366,26.0344262 136.993535,27.3356967 136.993535,27.3356967 C136.993535,27.3356967 134.571225,33.9487295 131.299408,33.9487295 C129.796577,33.9487295 128.628352,32.9664344 127.044944,32.9664344 C125.431451,32.9664344 123.830127,33.9854098 122.78731,33.9854098 C119.799606,33.9854098 116.025099,27.7122951 116.025099,22.6698361 C116.025099,17.7086475 119.219972,15.1061066 122.216634,15.1061066 C124.16469,15.1061066 125.676479,16.1957787 126.689211,16.1957787 Z" id="Fill-1" sketch:type="MSShapeGroup"></path>
            </g>
        </g>
    </g>
</svg>