<?xml version="1.0" encoding="UTF-8" standalone="no"?>
<svg width="60px" height="60px" viewBox="0 0 60 60" version="1.1" xmlns="http://www.w3.org/2000/svg" xmlns:xlink="http://www.w3.org/1999/xlink" xmlns:sketch="http://www.bohemiancoding.com/sketch/ns">
    <!-- Generator: Sketch 3.3.1 (12002) - http://www.bohemiancoding.com/sketch -->
    <title>Oval 194 Copy 3</title>
    <desc>Created with Sketch.</desc>
    <defs></defs>
    <g id="Page-1" stroke="none" stroke-width="1" fill="none" fill-rule="evenodd" sketch:type="MSPage">
        <g id="01-Home" sketch:type="MSArtboardGroup" transform="translate(-859.000000, -2583.000000)" fill="#F47B00">
            <path d="M896.848617,2618.1986 C896.933098,2618.26202 897.014132,2618.33215 897.09099,2618.40901 C898.202101,2619.52012 898.202101,2619.52012 899.535435,2620.85345 C902.202101,2623.52012 902.202101,2623.52012 903.09099,2624.40901 C903.96967,2625.28769 903.96967,2626.71231 903.09099,2627.59099 C902.212311,2628.46967 900.787689,2628.46967 899.90901,2627.59099 C899.020121,2626.7021 899.020121,2626.7021 896.353454,2624.03543 C895.020121,2622.7021 895.020121,2622.7021 893.90901,2621.59099 C893.77133,2621.45331 893.655223,2621.30223 893.560689,2621.14194 C891.653677,2622.3201 889.406238,2623 887,2623 C880.096441,2623 874.5,2617.40356 874.5,2610.5 C874.5,2603.59644 880.096441,2598 887,2598 C893.903559,2598 899.5,2603.59644 899.5,2610.5 C899.5,2613.40389 898.509794,2616.0765 896.848617,2618.1986 L896.848617,2618.1986 Z M889,2643 C905.568542,2643 919,2629.56854 919,2613 C919,2596.43146 905.568542,2583 889,2583 C872.431458,2583 859,2596.43146 859,2613 C859,2629.56854 872.431458,2643 889,2643 Z M889,2641 C904.463973,2641 917,2628.46397 917,2613 C917,2597.53603 904.463973,2585 889,2585 C873.536027,2585 861,2597.53603 861,2613 C861,2628.46397 873.536027,2641 889,2641 Z M896.386367,2610.5 C896.386367,2605.31605 892.183947,2601.11363 887,2601.11363 C881.816053,2601.11363 877.613633,2605.31605 877.613633,2610.5 C877.613633,2615.68395 881.816053,2619.88637 887,2619.88637 C892.183947,2619.88637 896.386367,2615.68395 896.386367,2610.5 Z" id="Oval-194-Copy-3" sketch:type="MSShapeGroup"></path>
        </g>
    </g>
</svg>