<?xml version="1.0" encoding="UTF-8" standalone="no"?>
<svg width="60px" height="60px" viewBox="0 0 60 60" version="1.1" xmlns="http://www.w3.org/2000/svg" xmlns:xlink="http://www.w3.org/1999/xlink" xmlns:sketch="http://www.bohemiancoding.com/sketch/ns">
    <!-- Generator: Sketch 3.3.1 (12002) - http://www.bohemiancoding.com/sketch -->
    <title>Oval 194 Copy</title>
    <desc>Created with Sketch.</desc>
    <defs></defs>
    <g id="Page-1" stroke="none" stroke-width="1" fill="none" fill-rule="evenodd" sketch:type="MSPage">
        <g id="01-Home" sketch:type="MSArtboardGroup" transform="translate(-629.000000, -2583.000000)" fill="#F47B00">
            <path d="M659,2643 C675.568542,2643 689,2629.56854 689,2613 C689,2596.43146 675.568542,2583 659,2583 C642.431458,2583 629,2596.43146 629,2613 C629,2629.56854 642.431458,2643 659,2643 Z M659,2641 C674.463973,2641 687,2628.46397 687,2613 C687,2597.53603 674.463973,2585 659,2585 C643.536027,2585 631,2597.53603 631,2613 C631,2628.46397 643.536027,2641 659,2641 Z M659,2625 L657.26,2623.41744 C651.08,2617.81853 647,2614.12589 647,2609.59401 C647,2605.90136 649.904,2603 653.6,2603 C655.688,2603 657.692,2603.97112 659,2605.50572 C660.308,2603.97112 662.312,2603 664.4,2603 C668.096,2603 671,2605.90136 671,2609.59401 C671,2614.12589 666.92,2617.81853 660.74,2623.42943 L659,2625 L659,2625 Z" id="Oval-194-Copy" sketch:type="MSShapeGroup"></path>
        </g>
    </g>
</svg>