<?xml version="1.0" encoding="UTF-8" standalone="no"?>
<svg width="60px" height="60px" viewBox="0 0 60 60" version="1.1" xmlns="http://www.w3.org/2000/svg" xmlns:xlink="http://www.w3.org/1999/xlink" xmlns:sketch="http://www.bohemiancoding.com/sketch/ns">
    <!-- Generator: Sketch 3.3.1 (12002) - http://www.bohemiancoding.com/sketch -->
    <title>Oval 194 Copy 4</title>
    <desc>Created with Sketch.</desc>
    <defs></defs>
    <g id="Page-1" stroke="none" stroke-width="1" fill="none" fill-rule="evenodd" sketch:type="MSPage">
        <g id="01-Home" sketch:type="MSArtboardGroup" transform="translate(-1057.000000, -2583.000000)" fill="#F47B00">
            <path d="M1087,2643 C1103.56854,2643 1117,2629.56854 1117,2613 C1117,2596.43146 1103.56854,2583 1087,2583 C1070.43146,2583 1057,2596.43146 1057,2613 C1057,2629.56854 1070.43146,2643 1087,2643 Z M1087,2641 C1102.46397,2641 1115,2628.46397 1115,2613 C1115,2597.53603 1102.46397,2585 1087,2585 C1071.53603,2585 1059,2597.53603 1059,2613 C1059,2628.46397 1071.53603,2641 1087,2641 Z M1083.79686,2597.01711 C1083.38642,2597.00766 1083.05369,2597.32791 1083.05369,2597.74078 L1083.05369,2606.85564 C1083.05369,2607.13191 1082.82062,2607.35556 1082.53187,2607.35556 L1081.78997,2607.35556 C1081.50196,2607.35556 1081.26815,2607.13191 1081.26815,2606.85564 L1081.26815,2597.74078 C1081.26815,2597.33166 1080.94195,2597 1080.51446,2597 L1079.93419,2597 C1079.51794,2597 1079.1805,2597.32791 1079.1805,2597.74078 L1079.1805,2606.85564 C1079.1805,2607.13191 1078.94705,2607.35556 1078.65868,2607.35556 L1077.93459,2607.35556 C1077.64658,2607.35556 1077.41277,2607.13191 1077.41277,2606.85564 L1077.41277,2597.74078 C1077.41277,2597.33166 1077.06738,2597 1076.66773,2597 L1076.5636,2597 C1075.72854,2597.32747 1075,2598.00124 1075,2598.78809 L1075,2607.78507 C1075,2608.41831 1075.31324,2608.97582 1075.79201,2609.34311 C1075.78162,2609.34489 1077.88708,2610.91893 1078.10642,2614.80942 L1078.10642,2628.00018 C1078.10642,2628.55342 1078.57332,2629 1079.15006,2629 L1081.23771,2629 C1081.81446,2629 1082.28135,2628.55307 1082.28135,2628.00018 L1082.28135,2614.80942 C1082.45876,2611.66667 1083.86537,2609.96178 1084.39944,2609.50489 C1085.01812,2609.15751 1085.43825,2608.52178 1085.43825,2607.78507 L1085.43825,2598.78809 C1085.43825,2598.01476 1084.70525,2597.35058 1083.87242,2597.01884 L1083.79686,2597.01711 Z M1099,2604.6576 C1099,2600.42827 1096.4295,2597 1093.25776,2597 C1090.08638,2597 1087.51774,2600.42827 1087.51774,2604.6576 C1087.51774,2606.91893 1088.2563,2608.94596 1089.42613,2610.34684 L1089.42353,2610.34756 C1089.42353,2610.34756 1091.20388,2612.68391 1091.20388,2614.80907 L1091.20388,2627.99982 C1091.20388,2628.55307 1091.6704,2628.99964 1092.24752,2628.99964 L1094.33517,2628.99964 C1094.91192,2628.99964 1095.37881,2628.55271 1095.37881,2627.99982 L1095.37881,2614.18969 C1095.65865,2612.25404 1097.0994,2610.34791 1097.0994,2610.34791 L1097.09346,2610.344 C1098.26106,2608.94382 1099,2606.91858 1099,2604.6576 L1099,2604.6576 Z" id="Oval-194-Copy-4" sketch:type="MSShapeGroup"></path>
        </g>
    </g>
</svg>