<?xml version="1.0" encoding="UTF-8" standalone="no"?>
<svg width="60px" height="60px" viewBox="0 0 60 60" version="1.1" xmlns="http://www.w3.org/2000/svg" xmlns:xlink="http://www.w3.org/1999/xlink" xmlns:sketch="http://www.bohemiancoding.com/sketch/ns">
    <!-- Generator: Sketch 3.3.1 (12002) - http://www.bohemiancoding.com/sketch -->
    <title>Oval 194 Copy 2</title>
    <desc>Created with Sketch.</desc>
    <defs></defs>
    <g id="Page-1" stroke="none" stroke-width="1" fill="none" fill-rule="evenodd" sketch:type="MSPage">
        <g id="01-Home" sketch:type="MSArtboardGroup" transform="translate(-776.000000, -2583.000000)" fill="#F47B00">
            <path d="M806,2643 C822.568542,2643 836,2629.56854 836,2613 C836,2596.43146 822.568542,2583 806,2583 C789.431458,2583 776,2596.43146 776,2613 C776,2629.56854 789.431458,2643 806,2643 Z M806,2641 C821.463973,2641 834,2628.46397 834,2613 C834,2597.53603 821.463973,2585 806,2585 C790.536027,2585 778,2597.53603 778,2613 C778,2628.46397 790.536027,2641 806,2641 Z M794,2608.68852 C794,2615.59813 804.190486,2628.31864 804.190486,2628.31864 C805.189853,2629.6323 806.824809,2629.63002 807.809514,2628.31651 C807.809514,2628.31651 818,2615.58249 818,2608.68852 C817.999673,2602.07628 812.616031,2596.69724 806,2596.69724 C799.383969,2596.69724 794,2602.07661 794,2608.68852 Z M801,2607.69793 C801,2604.93619 803.238569,2602.69724 806,2602.69724 C808.761431,2602.69724 811,2604.9355 811,2607.69793 C811,2610.45898 808.761776,2612.69724 806,2612.69724 C803.238914,2612.69689 801,2610.45863 801,2607.69793 L801,2607.69793 Z" id="Oval-194-Copy-2" sketch:type="MSShapeGroup"></path>
        </g>
    </g>
</svg>