<?xml version="1.0" encoding="UTF-8" standalone="no"?>
<svg width="60px" height="60px" viewBox="0 0 60 60" version="1.1" xmlns="http://www.w3.org/2000/svg" xmlns:xlink="http://www.w3.org/1999/xlink" xmlns:sketch="http://www.bohemiancoding.com/sketch/ns">
    <!-- Generator: Sketch 3.3.1 (12002) - http://www.bohemiancoding.com/sketch -->
    <title>Oval 206 Copy</title>
    <desc>Created with Sketch.</desc>
    <defs></defs>
    <g id="Page-1" stroke="none" stroke-width="1" fill="none" fill-rule="evenodd" sketch:type="MSPage">
        <g id="01-Home" sketch:type="MSArtboardGroup" transform="translate(-175.000000, -7781.000000)" fill="#F47B00">
            <path d="M205,7841 C221.568542,7841 235,7827.56854 235,7811 C235,7794.43146 221.568542,7781 205,7781 C188.431458,7781 175,7794.43146 175,7811 C175,7827.56854 188.431458,7841 205,7841 Z M205,7834 C217.702549,7834 228,7823.70255 228,7811 C228,7798.29745 217.702549,7788 205,7788 C192.297451,7788 182,7798.29745 182,7811 C182,7823.70255 192.297451,7834 205,7834 Z M196.8685,7823.32519 C196.8685,7824.96319 197.7655,7825.86019 199.4425,7825.86019 L202.5625,7825.86019 C204.2395,7825.86019 205.0975,7824.96319 205.0975,7823.32519 L205.0975,7816.18819 L210.5185,7816.18819 C212.1955,7816.18819 213.0925,7815.33019 213.0925,7813.65319 L213.0925,7811.74219 C213.0925,7810.06519 212.1955,7809.16819 210.5185,7809.16819 L205.0975,7809.16819 L205.0975,7804.83919 L212.3125,7804.83919 C213.9895,7804.83919 214.8475,7803.94219 214.8475,7802.30419 L214.8475,7800.35419 C214.8475,7798.67719 213.9895,7797.81919 212.3125,7797.81919 L199.4425,7797.81919 C197.7655,7797.81919 196.8685,7798.67719 196.8685,7800.35419 L196.8685,7823.32519 Z" id="Oval-206-Copy" sketch:type="MSShapeGroup"></path>
        </g>
    </g>
</svg>