<?xml version="1.0" encoding="UTF-8" standalone="no"?>
<svg width="46px" height="64px" viewBox="0 0 46 64" version="1.1" xmlns="http://www.w3.org/2000/svg" xmlns:xlink="http://www.w3.org/1999/xlink" xmlns:sketch="http://www.bohemiancoding.com/sketch/ns">
    <!-- Generator: Sketch 3.3.3 (12072) - http://www.bohemiancoding.com/sketch -->
    <title>FF_logo_new</title>
    <desc>Created with Sketch.</desc>
    <defs></defs>
    <g id="Page-1" stroke="none" stroke-width="1" fill="none" fill-rule="evenodd" sketch:type="MSPage">
        <g id="01-Home" sketch:type="MSArtboardGroup" transform="translate(-258.000000, -7778.000000)" fill="#F47B00">
            <g id="FOODFAVES-+-Group-+-Imported-Layers" sketch:type="MSLayerGroup" transform="translate(201.000000, 7731.000000)">
                <g id="Group-+-Imported-Layers" transform="translate(0.584530, 0.000000)" sketch:type="MSShapeGroup">
                    <g id="FF_logo_new" transform="translate(56.930560, 47.291992)">
                        <path d="M8.88299972,34.4868678 C8.95710206,34.4837441 9.02598591,34.5285163 9.05207829,34.5982776 L9.98201037,36.909771 C10.8472334,39.2035638 14.1087797,48.6025958 15.5689088,52.7695312 L18.5643129,52.7695312 C18.5173467,52.6539566 16.788988,48.0694946 15.9206339,45.8860704 L13.5117863,39.6262964 L11.2678424,33.7757191 C11.2438374,33.7132463 11.2605365,33.6403614 11.3095902,33.5935068 C11.9921666,32.93546 13.2195517,30.7030988 12.3011003,28.3843169 L7.01374229,15.426418 C6.91772237,15.1838153 6.65471127,15.0630345 6.40839929,15.148414 C6.29776764,15.1911038 6.2059225,15.2764832 6.1652184,15.3774809 C6.13286386,15.4378713 6.12242691,15.4878495 6.11303366,15.6065478 C6.11303366,15.6065478 6.11825213,15.6721443 6.14121342,15.7387819 L9.49773598,25.5282689 L8.79532936,25.7969019 L4.9743626,16.1781739 C4.88460485,15.949107 4.60593833,15.8283263 4.37528177,15.9084997 C4.25734426,15.9543131 4.16445542,16.041775 4.11018329,16.1594321 C4.06530441,16.261471 4.06112963,16.3989111 4.09870265,16.4967852 C4.10079004,16.5019912 4.10287743,16.5082385 4.10392112,16.5144858 C4.10392112,16.5144858 6.99808687,24.9451895 7.44478825,26.3008492 L6.77786726,26.5517816 L2.94228878,16.9413832 C2.85044363,16.7039866 2.58117037,16.579041 2.33903317,16.6696266 C2.21065871,16.720646 2.12820682,16.7976958 2.07289099,16.9184765 C2.02696842,17.0309276 2.02383733,17.1423374 2.06558513,17.2620769 L5.42732616,27.0557288 L4.76040516,27.2889605 L0.897690617,17.6993865 C0.806889167,17.4651135 0.532397428,17.3484976 0.290260229,17.4370007 C0.256861995,17.4536602 0.190065526,17.4880202 0.144142954,17.5317511 C0.0115937108,17.662944 -0.0332851667,17.8441151 0.0251617435,18.0086268 C0.028292828,18.0159153 0.0303802176,18.0211214 0.0324676073,18.0284099 L4.68421544,31.7682599 C5.45550592,33.8652634 7.86122249,34.5399696 8.88299972,34.4868678" id="Fill-1"></path>
                        <path d="M25.5899231,29.0479345 C27.8891046,27.0884323 29.8576033,23.739863 29.8576033,19.4256209 C29.8576033,13.64097 26.7057176,8.95339012 22.815515,8.94921875 C18.9273921,8.95339012 15.779666,13.64097 15.779666,19.4256209 C15.779666,23.739863 17.736726,27.169774 20.0431867,29.0479345 C21.7142788,30.4088448 21.899378,32.2087921 21.899378,33.565531 C21.899378,37.0830409 21.5624559,47.5688286 21.418952,52.9238281 L24.3472628,52.9238281 C24.2058387,47.5688286 23.7368514,37.0799124 23.7368514,33.5624025 C23.7368514,32.1128505 23.7254127,30.6361846 25.5899231,29.0479345" id="Fill-2"></path>
                        <path d="M5.79720772,12.1548724 C6.51847659,12.0105078 7.07772129,12.1737025 7.34845844,12.359912 L7.34845844,6.18047905 L38.598216,6.18047905 L38.598216,13.7324219 C39.4783731,12.5607671 40.5968625,11.8023298 41.6150015,11.3305295 L41.6150015,4.33407662 C41.6150015,1.94996834 39.6633943,0 37.2811164,0 L8.66764875,0 C6.28746149,0 4.33167301,1.53361244 4.33167301,4.33407662 L4.33167301,13.0283829 C4.58882105,12.7145468 5.04353403,12.3065598 5.79720772,12.1548724" id="Fill-3"></path>
                        <path d="M44.148833,14.4263166 C41.7108352,13.206825 38.1637997,16.8861814 35.3718313,23.7959376 C33.0102827,29.6407269 29.2108599,39.292251 28.7102745,40.5963135 C30.1219674,41.4900505 31.0770593,43.9561799 30.3555041,45.7342571 C29.3239629,48.2766046 27.3823616,52.9238281 27.3823616,52.9238281 L30.3754019,52.9238281 L44.5164178,15.1989396 C44.6829305,14.8387302 44.253558,14.4795649 44.148833,14.4263166" id="Fill-4"></path>
                        <path d="M38.598216,38.4993784 L38.598216,55.1619556 L7.34845844,55.1619556 L7.34845844,37.2950308 C6.46516541,37.1750135 4.8052017,36.4423861 4.33167301,35.5928723 L4.33167301,59.0912179 C4.33167301,61.9058848 6.28746149,63.4160156 8.66764875,63.4160156 L37.2811164,63.4160156 C39.6633943,63.4160156 41.6150015,61.4686043 41.6150015,59.0912179 L41.6150015,30.2421875 L38.598216,38.4993784 Z M22.8928501,57.0898438 C21.6991313,57.0898438 20.7301494,58.0587106 20.7301494,59.2526045 C20.7301494,60.443373 21.6991313,61.4101562 22.8928501,61.4101562 C24.0949311,61.4101562 25.0618224,60.4444148 25.0618224,59.2526045 C25.0618224,58.0587106 24.0949311,57.0898438 22.8928501,57.0898438 Z" id="Fill-5"></path>
                        <path d="M20.5675376,4.16601562 L25.3739486,4.16601562 C25.9757876,4.16601562 26.4541459,3.67833925 26.4541459,3.08437443 C26.4541459,2.48728349 25.9757876,2.00585938 25.3739486,2.00585938 L20.5675376,2.00585938 C19.9802257,2.00585938 19.4925286,2.48728349 19.4925286,3.08437443 C19.4925286,3.67833925 19.9708868,4.16601562 20.5675376,4.16601562" id="Fill-6"></path>
                    </g>
                </g>
            </g>
        </g>
    </g>
</svg>