<?xml version="1.0" encoding="UTF-8" standalone="no"?>
<svg width="72px" height="83px" viewBox="0 0 72 83" version="1.1" xmlns="http://www.w3.org/2000/svg" xmlns:xlink="http://www.w3.org/1999/xlink" xmlns:sketch="http://www.bohemiancoding.com/sketch/ns">
    <!-- Generator: Sketch 3.3.1 (12002) - http://www.bohemiancoding.com/sketch -->
    <title>Shape 2 + Shape</title>
    <desc>Created with Sketch.</desc>
    <defs></defs>
    <g id="Page-1" stroke="none" stroke-width="1" fill="none" fill-rule="evenodd" sketch:type="MSPage">
        <g id="01-Home" sketch:type="MSArtboardGroup" transform="translate(-990.000000, -4584.000000)">
            <g id="Shape-2-+-Shape" sketch:type="MSLayerGroup" transform="translate(990.000000, 4584.000000)">
                <path d="M0.240519353,36.2795034 C0.240519353,56.9367051 31.0900236,81.3728402 31.0900236,81.3728402 C33.6063396,83.5144029 37.7157995,83.5272803 40.2114459,81.3593528 C40.2114459,81.3593528 71.0519131,56.8899494 71.0519131,36.2795034 C71.0509478,16.5113158 55.1666472,0.429931809 35.6462162,0.429931809 C16.1257853,0.429931809 0.240519353,16.5122932 0.240519353,36.2795034 Z" id="Shape-2" fill="#F47B00" sketch:type="MSShapeGroup"></path>
                <path d="M33,24 C33,24 33,24.3327179 33,24.7516253 L33,34 C32.7155556,33.8152889 32.4922667,34.0319444 32,34 L32,34 C31.2289778,34.0319444 31.0049778,33.8152889 31,34 L31,24.7516253 C31,24.3365141 30.6697407,24 30.2552738,24 L29.7447262,24 C29.3334253,24 29,24.3327179 29,24.7516253 L29,34 C29.0049778,33.8152889 28.7813333,34.0319444 29,34 L28,34 C27.5354667,34.0319444 27.3114667,33.8152889 27,34 L27,24.7516253 C27,24.3365141 26.6614456,24 26.2523422,24 L26,24 C25.6979556,24.3172333 25,24.9699556 25,26 L25,34 C25,35.0614889 25.3000889,35.6015778 26,36 C25.7488,35.9591111 27.7658667,37.4839667 28,41 L28,54 C27.976,54.5673778 28.4232889,55 29,55 L31,55 C31.5283556,55 31.9756444,54.5670333 32,54 L32,41 C32.1456,38.2083333 33.4931556,36.5567222 34,36 C34.5975111,35.7775889 35,35.1617222 35,34 L35,26 C35,24.9830444 34.2977778,24.3396222 33,24 L33,24 Z M42,24 C39.5,24 37,27.3211702 37,31 C37,33.6090734 37.7075441,35.572773 39,37 C39.5,37.5 40,38.5 40,41 L40,54 C40,54.5 40.5,55 41,55 L43,55 C43.5,55 44,54.5 44,54 L44,41 C44,38.5 44.5,37.5 45,37 C46.2299367,35.5806245 47,33.5420956 47,31 C47,27.3211702 44.5,24 42,24 Z" id="Shape" fill="#FFFFFF" sketch:type="MSShapeGroup"></path>
            </g>
        </g>
    </g>
</svg>