<?xml version="1.0" encoding="UTF-8" standalone="no"?>
<svg width="245px" height="32px" viewBox="0 0 245 32" version="1.1" xmlns="http://www.w3.org/2000/svg" xmlns:xlink="http://www.w3.org/1999/xlink" xmlns:sketch="http://www.bohemiancoding.com/sketch/ns">
    <!-- Generator: Sketch 3.4 (15575) - http://www.bohemiancoding.com/sketch -->
    <title>foodfaves_logo_trademark</title>
    <desc>Created with Sketch.</desc>
    <defs>
        <rect id="path-1" x="0" y="0" width="75.4" height="75"></rect>
    </defs>
    <g id="Home" stroke="none" stroke-width="1" fill="none" fill-rule="evenodd" sketch:type="MSPage">
        <g id="01-Home" sketch:type="MSArtboardGroup" transform="translate(-151.000000, -122.000000)">
            <g id="foodfaves_logo_trademark" sketch:type="MSLayerGroup" transform="translate(150.000000, 99.000000)">
                <g id="FOODFAVE-Copy" transform="translate(0.650000, 27.155172)" fill="#F47B00" sketch:type="MSShapeGroup">
                    <path d="M0.739236638,21.5759413 C0.739236638,22.8793896 1.45683664,23.5931827 2.79843664,23.5931827 L5.29443664,23.5931827 C6.63603664,23.5931827 7.32243664,22.8793896 7.32243664,21.5759413 L7.32243664,15.896631 L11.6592366,15.896631 C13.0008366,15.896631 13.7184366,15.2138724 13.7184366,13.8793896 L13.7184366,12.3587 C13.7184366,11.0242172 13.0008366,10.3104241 11.6592366,10.3104241 L7.32243664,10.3104241 L7.32243664,6.86559651 L13.0944366,6.86559651 C14.4360366,6.86559651 15.1224366,6.15180341 15.1224366,4.84835513 L15.1224366,3.29663099 C15.1224366,1.96214823 14.4360366,1.27938961 13.0944366,1.27938961 L2.79843664,1.27938961 C1.45683664,1.27938961 0.739236638,1.96214823 0.739236638,3.29663099 L0.739236638,21.5759413 Z M16.8448113,12.296631 C16.8448113,18.8449069 21.5560113,23.9655965 28.6696113,23.9655965 C35.7832113,23.9655965 40.5256113,18.8449069 40.5256113,12.296631 C40.5256113,5.90352754 35.7832113,0.906975821 28.6696113,0.906975821 C21.5560113,0.906975821 16.8448113,5.90352754 16.8448113,12.296631 L16.8448113,12.296631 Z M23.6464113,12.296631 C23.6464113,9.19318272 25.7056113,6.86559651 28.6696113,6.86559651 C31.6648113,6.86559651 33.7240113,9.19318272 33.7240113,12.296631 C33.7240113,15.5552517 31.6648113,18.0069758 28.6696113,18.0069758 C25.7056113,18.0069758 23.6464113,15.5552517 23.6464113,12.296631 L23.6464113,12.296631 Z M42.8407859,12.296631 C42.8407859,18.8449069 47.5519859,23.9655965 54.6655859,23.9655965 C61.7791859,23.9655965 66.5215859,18.8449069 66.5215859,12.296631 C66.5215859,5.90352754 61.7791859,0.906975821 54.6655859,0.906975821 C47.5519859,0.906975821 42.8407859,5.90352754 42.8407859,12.296631 L42.8407859,12.296631 Z M49.6423859,12.296631 C49.6423859,9.19318272 51.7015859,6.86559651 54.6655859,6.86559651 C57.6607859,6.86559651 59.7199859,9.19318272 59.7199859,12.296631 C59.7199859,15.5552517 57.6607859,18.0069758 54.6655859,18.0069758 C51.7015859,18.0069758 49.6423859,15.5552517 49.6423859,12.296631 L49.6423859,12.296631 Z M69.8039605,21.5759413 C69.8039605,22.8793896 70.5215605,23.5931827 71.8631605,23.5931827 L78.0095605,23.5931827 C85.1855605,23.5931827 89.7095605,19.3724931 89.7095605,12.3897344 C89.7095605,5.37594134 85.1855605,1.27938961 78.0095605,1.27938961 L71.8631605,1.27938961 C70.5215605,1.27938961 69.8039605,1.96214823 69.8039605,3.29663099 L69.8039605,21.5759413 Z M76.3871605,18.0069758 L76.3871605,6.86559651 L77.7911605,6.86559651 C80.9111605,6.86559651 82.9079605,8.69663099 82.9079605,12.3897344 C82.9079605,16.0828379 81.0359605,18.0069758 77.7911605,18.0069758 L76.3871605,18.0069758 Z M93.0543351,21.5759413 C93.0543351,22.8793896 93.7719351,23.5931827 95.1135351,23.5931827 L97.6095351,23.5931827 C98.9511351,23.5931827 99.6375351,22.8793896 99.6375351,21.5759413 L99.6375351,15.896631 L103.974335,15.896631 C105.315935,15.896631 106.033535,15.2138724 106.033535,13.8793896 L106.033535,12.3587 C106.033535,11.0242172 105.315935,10.3104241 103.974335,10.3104241 L99.6375351,10.3104241 L99.6375351,6.86559651 L105.409535,6.86559651 C106.751135,6.86559651 107.437535,6.15180341 107.437535,4.84835513 L107.437535,3.29663099 C107.437535,1.96214823 106.751135,1.27938961 105.409535,1.27938961 L95.1135351,1.27938961 C93.7719351,1.27938961 93.0543351,1.96214823 93.0543351,3.29663099 L93.0543351,21.5759413 Z M107.56871,21.2655965 C107.06951,22.6621482 107.75591,23.5931827 109.22231,23.5931827 L111.74951,23.5931827 C112.93511,23.5931827 113.68391,23.034562 113.99591,21.8862862 L114.46391,19.7138724 L120.79751,19.7138724 L121.26551,21.8862862 C121.63991,23.034562 122.35751,23.5931827 123.57431,23.5931827 L126.10151,23.5931827 C127.56791,23.5931827 128.25431,22.6621482 127.75511,21.2655965 L121.67111,2.9242172 C121.29671,1.80697582 120.54791,1.27938961 119.36231,1.27938961 L115.96151,1.27938961 C114.74471,1.27938961 114.02711,1.80697582 113.65271,2.9242172 L107.56871,21.2655965 Z M115.96151,14.5311138 L116.71031,11.4276655 C117.11591,9.90697582 117.61511,7.30007927 117.61511,7.30007927 L117.67751,7.30007927 C117.67751,7.30007927 118.20791,9.90697582 118.61351,11.4276655 L119.29991,14.5311138 L115.96151,14.5311138 Z M134.157484,21.9793896 C134.563084,23.0655965 135.311884,23.5931827 136.497484,23.5931827 L139.835884,23.5931827 C141.021484,23.5931827 141.770284,23.0655965 142.175884,21.9793896 L148.540684,3.60697582 C149.039884,2.2104241 148.384684,1.27938961 146.887084,1.27938961 L144.110284,1.27938961 C142.893484,1.27938961 142.144684,1.8380103 141.801484,2.98628617 L139.055884,12.5759413 C138.587884,14.0655965 138.213484,16.3931827 138.213484,16.3931827 L138.151084,16.3931827 C138.151084,16.3931827 137.745484,14.0655965 137.308684,12.5759413 L134.594284,2.98628617 C134.282284,1.8380103 133.533484,1.27938961 132.316684,1.27938961 L129.415084,1.27938961 C127.917484,1.27938961 127.262284,2.2104241 127.761484,3.60697582 L134.157484,21.9793896 Z M151.323859,21.5759413 C151.323859,22.8793896 152.041459,23.5931827 153.383059,23.5931827 L164.209459,23.5931827 C165.551059,23.5931827 166.268659,22.8793896 166.268659,21.5759413 L166.268659,20.0242172 C166.268659,18.7207689 165.551059,18.0069758 164.209459,18.0069758 L157.907059,18.0069758 L157.907059,15.1518034 L162.150259,15.1518034 C163.491859,15.1518034 164.209459,14.4690448 164.209459,13.134562 L164.209459,11.5828379 C164.209459,10.2793896 163.491859,9.56559651 162.150259,9.56559651 L157.907059,9.56559651 L157.907059,6.86559651 L163.835059,6.86559651 C165.145459,6.86559651 165.863059,6.15180341 165.863059,4.84835513 L165.863059,3.29663099 C165.863059,1.96214823 165.145459,1.27938961 163.835059,1.27938961 L153.383059,1.27938961 C152.041459,1.27938961 151.323859,1.96214823 151.323859,3.29663099 L151.323859,21.5759413 Z M169.301434,21.7931827 C170.580634,22.7862862 173.513434,23.9655965 176.602234,23.9655965 C181.906234,23.9655965 184.839034,20.5828379 184.839034,16.734562 C184.839034,9.56559651 175.323034,10.3724931 175.323034,7.82766548 C175.323034,7.2380103 175.759834,6.80352754 177.007834,6.80352754 C178.349434,6.80352754 179.191834,7.30007927 180.315034,7.79663099 C181.344634,8.29318272 182.343034,8.54145858 183.091834,7.08283789 L183.996634,5.31387237 C184.527034,4.22766548 184.433434,3.29663099 183.341434,2.52076892 C182.187034,1.74490686 179.691034,0.906975821 177.101434,0.906975821 C172.327834,0.906975821 168.771034,3.76214823 168.771034,8.04490686 C168.771034,15.1828379 178.255834,14.7173206 178.255834,17.0759413 C178.255834,17.6035275 177.881434,18.0690448 176.602234,18.0690448 C174.855034,18.0690448 173.607034,17.0759413 172.889434,16.796631 C171.672634,16.1449069 170.830234,16.2069758 170.081434,17.2931827 L168.895834,19.0000793 C167.928634,20.396631 168.521434,21.2035275 169.301434,21.7931827 L169.301434,21.7931827 Z" id="FOODFAVES"></path>
                </g>
                <g id="FOODFAVE-Copy-2" transform="translate(190.450000, 28.448276)" fill="#F47B00" sketch:type="MSShapeGroup">
                    <path d="M3.04776688,8.53666397 C3.04776688,9.07976742 3.34676688,9.37718121 3.89276688,9.37718121 L4.94576688,9.37718121 C5.49176688,9.37718121 5.79076688,9.07976742 5.79076688,8.53666397 L5.79076688,2.40735363 L7.61076688,2.40735363 C8.15676688,2.40735363 8.45576688,2.10993983 8.45576688,1.56683639 L8.45576688,0.920284661 C8.45576688,0.364250179 8.15676688,0.07976742 7.61076688,0.07976742 L1.22776688,0.07976742 C0.68176688,0.07976742 0.38276688,0.364250179 0.38276688,0.920284661 L0.38276688,1.56683639 C0.38276688,2.10993983 0.68176688,2.40735363 1.22776688,2.40735363 L3.04776688,2.40735363 L3.04776688,8.53666397 Z M9.16042297,8.49787087 C9.10842297,9.05390535 9.40742297,9.37718121 9.95342297,9.37718121 L10.980423,9.37718121 C11.513423,9.37718121 11.812423,9.10562949 11.851423,8.56252604 L12.007423,5.96338811 C12.059423,5.18752604 11.994423,3.86856052 11.994423,3.86856052 L12.020423,3.86856052 C12.020423,3.86856052 12.384423,5.31683639 12.553423,5.96338811 L12.891423,7.28235363 C13.060423,7.74787087 13.359423,7.95476742 13.853423,7.95476742 L14.802423,7.95476742 C15.296423,7.95476742 15.608423,7.74787087 15.777423,7.28235363 L16.115423,5.96338811 C16.271423,5.32976742 16.648423,3.85562949 16.648423,3.85562949 L16.674423,3.85562949 C16.674423,3.85562949 16.622423,5.18752604 16.661423,5.96338811 L16.804423,8.56252604 C16.830423,9.10562949 17.142423,9.37718121 17.688423,9.37718121 L18.689423,9.37718121 C19.248423,9.37718121 19.547423,9.05390535 19.495423,8.49787087 L18.871423,0.894422592 C18.832423,0.351319144 18.533423,0.07976742 17.987423,0.07976742 L16.492423,0.07976742 C15.998423,0.07976742 15.673423,0.299595006 15.543423,0.778043282 L14.815423,3.49356052 C14.633423,4.14011225 14.347423,5.39442259 14.347423,5.39442259 L14.321423,5.39442259 C14.321423,5.39442259 14.022423,4.15304328 13.840423,3.49356052 L13.112423,0.778043282 C12.982423,0.299595006 12.657423,0.07976742 12.163423,0.07976742 L10.668423,0.07976742 C10.135423,0.07976742 9.83642297,0.351319144 9.78442297,0.894422592 L9.16042297,8.49787087 Z" id="TM"></path>
                </g>
                <g id="Group-+-Imported-Layers" transform="translate(196.950000, 0.000000)">
                    <g id="Group">
                        <mask id="mask-2" sketch:name="Mask" fill="white">
                            <use xlink:href="#path-1"></use>
                        </mask>
                        <use id="Mask" sketch:type="MSShapeGroup" xlink:href="#path-1"></use>
                    </g>
                    <g id="Imported-Layers" transform="translate(25.526042, 22.179334)" sketch:type="MSShapeGroup">
                        <path d="M5.56117682,18.2208547 L6.01701819,19.3323484 C6.44113997,20.4353306 8.03991024,24.9549044 8.75564772,26.9585971 L10.2239583,26.9585971 C10.200936,26.9030224 9.3537157,24.6985599 8.9280591,23.6486489 L7.74727133,20.6386038 L6.64731739,17.8253231 C6.63555044,17.7952827 6.64373614,17.7602356 6.66778165,17.7377054 C7.00237229,17.4212801 7.60402152,16.3478375 7.15380781,15.2328391 L4.56200935,9.00196558 C4.51494155,8.88530881 4.38601672,8.82723076 4.26527758,8.86828593 C4.2110473,8.88881352 4.16602593,8.92986869 4.14607327,8.97843396 C4.13021347,9.00747298 4.12509741,9.03150528 4.12049295,9.08858198 C4.12049295,9.08858198 4.12305098,9.12012437 4.13430632,9.15216744 L5.77963279,13.8594935 L5.43532162,13.9886671 L3.56233027,9.36345138 C3.51833211,9.25330335 3.38173318,9.1952253 3.26866815,9.23377711 C3.21085662,9.25580671 3.16532364,9.29786323 3.1387201,9.35443926 C3.11672102,9.4035052 3.1146746,9.46959402 3.13309243,9.51665727 C3.13565046,9.5251687 4.55433525,13.5791167 4.77330283,14.2309928 L4.44638628,14.3516549 L2.56623244,9.73044457 C2.52121107,9.61629116 2.3892166,9.55621042 2.27052389,9.59976896 C2.2075963,9.62430193 2.16717938,9.66135172 2.14006424,9.71942977 C2.11755355,9.77350243 2.11601874,9.82707443 2.13648299,9.88465181 L3.78436749,14.5939806 L3.45745094,14.7061313 L1.56399534,10.0949344 C1.51948557,9.98228301 1.38493307,9.92620765 1.26624036,9.96876484 C1.24986895,9.97677561 1.21712614,9.99329781 1.19461545,10.0143261 C1.12964143,10.0774109 1.10764235,10.1645279 1.13629231,10.2436342 C1.13782713,10.2471389 3.42010367,16.8600259 3.42010367,16.8600259 C3.79818086,17.868381 4.97743381,18.192817 5.47829656,18.1672827 C5.51462062,18.1657806 5.54838665,18.1873096 5.56117682,18.2208547 Z" id="Fill-1" fill="#F47B00"></path>
                        <path d="M13.4535048,15.7252056 C14.5150722,14.8032775 15.4239583,13.227806 15.4239583,11.1979942 C15.4239583,8.4763684 13.9686843,6.27090454 12.1725179,6.26894195 C10.3773119,6.27090454 8.92395833,8.4763684 8.92395833,11.1979942 C8.92395833,13.227806 9.827563,14.8415481 10.8924914,15.7252056 C11.6640603,16.3655015 11.7495234,17.2123604 11.7495234,17.8506938 C11.7495234,19.5056503 11.5939613,24.4391184 11.5277033,26.9585971 L12.8797494,26.9585971 C12.8144518,24.4391184 12.5979131,19.5041783 12.5979131,17.8492218 C12.5979131,17.1672208 12.5926317,16.4724628 13.4535048,15.7252056" id="Fill-2" fill="#F47B00"></path>
                        <path d="M3.940625,7.56204539 L3.940625,4.32928677 L20.4072917,4.32928677 L20.4072917,7.56204539 C20.9678719,7.01040531 21.4683673,6.65331687 21.9239583,5.94566608 L21.9239583,2.71290746 C21.9239583,2.01461485 21.0506642,1.09652815 20.4072917,1.09652815 L3.940625,1.09652815 C3.29912352,1.09652815 2.42395833,1.81858561 2.42395833,2.71290746 L2.42395833,7.56204539 C3.40249685,6.75133149 3.94062495,7.56204539 3.940625,7.56204539 Z" id="Fill-3" fill="#F47B00"></path>
                        <path d="M18.3578402,13.3429124 C17.1063782,16.0750295 15.0929396,20.5865855 14.8276629,21.1961629 C15.5757653,21.6139357 16.0818998,22.7667154 15.699524,23.5978686 C15.1528765,24.7862761 14.1239583,26.9585971 14.1239583,26.9585971 L15.7100685,26.9585971 L23.2038563,9.32428926 C23.2920968,9.1559112 23.0645583,8.98802119 23.0090611,8.96313052 C21.7170861,8.39308536 19.8373957,10.1129819 18.3578402,13.3429124 Z" id="Fill-4" fill="#F47B00"></path>
                        <path d="M20.6239583,28.2517006 L3.72395833,28.2517006 L3.72395833,19.1999764 C3.94062495,19.1999764 2.63585028,18.2208432 2.42395833,18.4241144 L2.42395833,30.5792868 C2.42395833,31.4246389 3.29912352,32.1310109 3.940625,32.1310109 L20.4072917,32.1310109 C21.0506642,32.1310109 21.9239583,31.2200985 21.9239583,30.5792868 L21.9239583,16.6137695 L20.6239583,19.1999764 L20.6239583,28.2517006 Z" id="Fill-5" fill="#F47B00"></path>
                        <path d="M12.1730172,29.544804 C11.8147643,29.544804 11.5239583,29.8347935 11.5239583,30.1921353 C11.5239583,30.5485417 11.8147643,30.8379075 12.1730172,30.8379075 C12.5337798,30.8379075 12.8239583,30.5488535 12.8239583,30.1921353 C12.8239583,29.8347935 12.5337798,29.544804 12.1730172,29.544804" id="Fill-7" fill="#FFFFFF"></path>
                    </g>
                </g>
            </g>
        </g>
    </g>
</svg>