<?xml version="1.0" encoding="UTF-8" standalone="no"?>
<svg width="182px" height="24px" viewBox="0 0 182 24" version="1.1" xmlns="http://www.w3.org/2000/svg" xmlns:xlink="http://www.w3.org/1999/xlink" xmlns:sketch="http://www.bohemiancoding.com/sketch/ns">
    <!-- Generator: Sketch 3.3.3 (12072) - http://www.bohemiancoding.com/sketch -->
    <title>foodfaves_logo</title>
    <desc>Created with Sketch.</desc>
    <defs>
        <rect id="path-1" x="0" y="0" width="58" height="58"></rect>
    </defs>
    <g id="Home" stroke="none" stroke-width="1" fill="none" fill-rule="evenodd" sketch:type="MSPage">
        <g id="01-Home" sketch:type="MSArtboardGroup" transform="translate(-152.000000, -39.000000)">
            <g id="foodfaves_logo" sketch:type="MSLayerGroup" transform="translate(151.000000, 21.000000)">
                <g id="FOODFAVE-Copy" transform="translate(0.500000, 21.000000)" fill="#F47B00" sketch:type="MSShapeGroup">
                    <path d="M0.568643568,16.6853946 C0.568643568,17.6933946 1.12064357,18.2453946 2.15264357,18.2453946 L4.07264357,18.2453946 C5.10464357,18.2453946 5.63264357,17.6933946 5.63264357,16.6853946 L5.63264357,12.2933946 L8.96864357,12.2933946 C10.0006436,12.2933946 10.5526436,11.7653946 10.5526436,10.7333946 L10.5526436,9.55739463 C10.5526436,8.52539463 10.0006436,7.97339463 8.96864357,7.97339463 L5.63264357,7.97339463 L5.63264357,5.30939463 L10.0726436,5.30939463 C11.1046436,5.30939463 11.6326436,4.75739463 11.6326436,3.74939463 L11.6326436,2.54939463 C11.6326436,1.51739463 11.1046436,0.989394635 10.0726436,0.989394635 L2.15264357,0.989394635 C1.12064357,0.989394635 0.568643568,1.51739463 0.568643568,2.54939463 L0.568643568,16.6853946 Z M12.9575471,9.50939463 C12.9575471,14.5733946 16.5815471,18.5333946 22.0535471,18.5333946 C27.5255471,18.5333946 31.1735471,14.5733946 31.1735471,9.50939463 C31.1735471,4.56539463 27.5255471,0.701394635 22.0535471,0.701394635 C16.5815471,0.701394635 12.9575471,4.56539463 12.9575471,9.50939463 L12.9575471,9.50939463 Z M18.1895471,9.50939463 C18.1895471,7.10939463 19.7735471,5.30939463 22.0535471,5.30939463 C24.3575471,5.30939463 25.9415471,7.10939463 25.9415471,9.50939463 C25.9415471,12.0293946 24.3575471,13.9253946 22.0535471,13.9253946 C19.7735471,13.9253946 18.1895471,12.0293946 18.1895471,9.50939463 L18.1895471,9.50939463 Z M32.9544507,9.50939463 C32.9544507,14.5733946 36.5784507,18.5333946 42.0504507,18.5333946 C47.5224507,18.5333946 51.1704507,14.5733946 51.1704507,9.50939463 C51.1704507,4.56539463 47.5224507,0.701394635 42.0504507,0.701394635 C36.5784507,0.701394635 32.9544507,4.56539463 32.9544507,9.50939463 L32.9544507,9.50939463 Z M38.1864507,9.50939463 C38.1864507,7.10939463 39.7704507,5.30939463 42.0504507,5.30939463 C44.3544507,5.30939463 45.9384507,7.10939463 45.9384507,9.50939463 C45.9384507,12.0293946 44.3544507,13.9253946 42.0504507,13.9253946 C39.7704507,13.9253946 38.1864507,12.0293946 38.1864507,9.50939463 L38.1864507,9.50939463 Z M53.6953542,16.6853946 C53.6953542,17.6933946 54.2473542,18.2453946 55.2793542,18.2453946 L60.0073542,18.2453946 C65.5273542,18.2453946 69.0073542,14.9813946 69.0073542,9.58139463 C69.0073542,4.15739463 65.5273542,0.989394635 60.0073542,0.989394635 L55.2793542,0.989394635 C54.2473542,0.989394635 53.6953542,1.51739463 53.6953542,2.54939463 L53.6953542,16.6853946 Z M58.7593542,13.9253946 L58.7593542,5.30939463 L59.8393542,5.30939463 C62.2393542,5.30939463 63.7753542,6.72539463 63.7753542,9.58139463 C63.7753542,12.4373946 62.3353542,13.9253946 59.8393542,13.9253946 L58.7593542,13.9253946 Z M71.5802578,16.6853946 C71.5802578,17.6933946 72.1322578,18.2453946 73.1642578,18.2453946 L75.0842578,18.2453946 C76.1162578,18.2453946 76.6442578,17.6933946 76.6442578,16.6853946 L76.6442578,12.2933946 L79.9802578,12.2933946 C81.0122578,12.2933946 81.5642578,11.7653946 81.5642578,10.7333946 L81.5642578,9.55739463 C81.5642578,8.52539463 81.0122578,7.97339463 79.9802578,7.97339463 L76.6442578,7.97339463 L76.6442578,5.30939463 L81.0842578,5.30939463 C82.1162578,5.30939463 82.6442578,4.75739463 82.6442578,3.74939463 L82.6442578,2.54939463 C82.6442578,1.51739463 82.1162578,0.989394635 81.0842578,0.989394635 L73.1642578,0.989394635 C72.1322578,0.989394635 71.5802578,1.51739463 71.5802578,2.54939463 L71.5802578,16.6853946 Z M82.7451613,16.4453946 C82.3611613,17.5253946 82.8891613,18.2453946 84.0171613,18.2453946 L85.9611613,18.2453946 C86.8731613,18.2453946 87.4491613,17.8133946 87.6891613,16.9253946 L88.0491613,15.2453946 L92.9211613,15.2453946 L93.2811613,16.9253946 C93.5691613,17.8133946 94.1211613,18.2453946 95.0571613,18.2453946 L97.0011613,18.2453946 C98.1291613,18.2453946 98.6571613,17.5253946 98.2731613,16.4453946 L93.5931613,2.26139463 C93.3051613,1.39739463 92.7291613,0.989394635 91.8171613,0.989394635 L89.2011613,0.989394635 C88.2651613,0.989394635 87.7131613,1.39739463 87.4251613,2.26139463 L82.7451613,16.4453946 Z M89.2011613,11.2373946 L89.7771613,8.83739463 C90.0891613,7.66139463 90.4731613,5.64539463 90.4731613,5.64539463 L90.5211613,5.64539463 C90.5211613,5.64539463 90.9291613,7.66139463 91.2411613,8.83739463 L91.7691613,11.2373946 L89.2011613,11.2373946 Z M103.198065,16.9973946 C103.510065,17.8373946 104.086065,18.2453946 104.998065,18.2453946 L107.566065,18.2453946 C108.478065,18.2453946 109.054065,17.8373946 109.366065,16.9973946 L114.262065,2.78939463 C114.646065,1.70939463 114.142065,0.989394635 112.990065,0.989394635 L110.854065,0.989394635 C109.918065,0.989394635 109.342065,1.42139463 109.078065,2.30939463 L106.966065,9.72539463 C106.606065,10.8773946 106.318065,12.6773946 106.318065,12.6773946 L106.270065,12.6773946 C106.270065,12.6773946 105.958065,10.8773946 105.622065,9.72539463 L103.534065,2.30939463 C103.294065,1.42139463 102.718065,0.989394635 101.782065,0.989394635 L99.5500649,0.989394635 C98.3980649,0.989394635 97.8940649,1.70939463 98.2780649,2.78939463 L103.198065,16.9973946 Z M116.402968,16.6853946 C116.402968,17.6933946 116.954968,18.2453946 117.986968,18.2453946 L126.314968,18.2453946 C127.346968,18.2453946 127.898968,17.6933946 127.898968,16.6853946 L127.898968,15.4853946 C127.898968,14.4773946 127.346968,13.9253946 126.314968,13.9253946 L121.466968,13.9253946 L121.466968,11.7173946 L124.730968,11.7173946 C125.762968,11.7173946 126.314968,11.1893946 126.314968,10.1573946 L126.314968,8.95739463 C126.314968,7.94939463 125.762968,7.39739463 124.730968,7.39739463 L121.466968,7.39739463 L121.466968,5.30939463 L126.026968,5.30939463 C127.034968,5.30939463 127.586968,4.75739463 127.586968,3.74939463 L127.586968,2.54939463 C127.586968,1.51739463 127.034968,0.989394635 126.026968,0.989394635 L117.986968,0.989394635 C116.954968,0.989394635 116.402968,1.51739463 116.402968,2.54939463 L116.402968,16.6853946 Z M130.231872,16.8533946 C131.215872,17.6213946 133.471872,18.5333946 135.847872,18.5333946 C139.927872,18.5333946 142.183872,15.9173946 142.183872,12.9413946 C142.183872,7.39739463 134.863872,8.02139463 134.863872,6.05339463 C134.863872,5.59739463 135.199872,5.26139463 136.159872,5.26139463 C137.191872,5.26139463 137.839872,5.64539463 138.703872,6.02939463 C139.495872,6.41339463 140.263872,6.60539463 140.839872,5.47739463 L141.535872,4.10939463 C141.943872,3.26939463 141.871872,2.54939463 141.031872,1.94939463 C140.143872,1.34939463 138.223872,0.701394635 136.231872,0.701394635 C132.559872,0.701394635 129.823872,2.90939463 129.823872,6.22139463 C129.823872,11.7413946 137.119872,11.3813946 137.119872,13.2053946 C137.119872,13.6133946 136.831872,13.9733946 135.847872,13.9733946 C134.503872,13.9733946 133.543872,13.2053946 132.991872,12.9893946 C132.055872,12.4853946 131.407872,12.5333946 130.831872,13.3733946 L129.919872,14.6933946 C129.175872,15.7733946 129.631872,16.3973946 130.231872,16.8533946 L130.231872,16.8533946 Z" id="FOODFAVES"></path>
                </g>
                <g id="FOODFAVE-Copy-2" transform="translate(145.500000, 21.000000)" fill="#F47B00" sketch:type="MSShapeGroup">
                    <path d="M0.650436062,5.2116868 C0.650436062,8.0676868 2.93243606,10.4196868 5.70443606,10.4196868 C8.54643606,10.4196868 10.8144361,8.0676868 10.8144361,5.2116868 C10.8144361,2.3416868 8.54643606,0.0316868048 5.70443606,0.0316868048 C2.93243606,0.0316868048 0.650436062,2.3416868 0.650436062,5.2116868 L0.650436062,5.2116868 Z M2.49843606,5.2116868 C2.49843606,3.2656868 3.89843606,1.7116868 5.70443606,1.7116868 C7.56643606,1.7116868 8.99443606,3.2656868 8.99443606,5.2116868 C8.99443606,7.1716868 7.56643606,8.7396868 5.70443606,8.7396868 C3.89843606,8.7396868 2.49843606,7.1716868 2.49843606,5.2116868 L2.49843606,5.2116868 Z M3.84243606,6.5836868 C3.84243606,7.1716868 4.09443606,7.4936868 4.68243606,7.4936868 L4.75243606,7.4936868 C5.32643606,7.4936868 5.59243606,7.1716868 5.59243606,6.5836868 L5.59243606,6.0236868 L5.76043606,6.0236868 L6.01243606,6.7936868 C6.16643606,7.2836868 6.47443606,7.4936868 7.00643606,7.4936868 L7.25843606,7.4936868 C7.81843606,7.4936868 7.98643606,7.0456868 7.66443606,6.4156868 L7.41243606,5.9256868 C7.32843606,5.7576868 7.23043606,5.6456868 7.23043606,5.6456868 L7.23043606,5.6176868 C7.35643606,5.5756868 7.88843606,5.1416868 7.88843606,4.3716868 C7.88843606,3.4616868 7.27243606,2.8316868 6.23643606,2.8316868 L4.75243606,2.8316868 C4.15043606,2.8316868 3.84243606,3.1536868 3.84243606,3.7556868 L3.84243606,6.5836868 Z M5.59243606,4.8896868 L5.59243606,4.0076868 L5.78843606,4.0076868 C6.04043606,4.0076868 6.25043606,4.1336868 6.25043606,4.4416868 C6.25043606,4.7356868 6.04043606,4.8896868 5.74643606,4.8896868 L5.59243606,4.8896868 Z" id="®"></path>
                </g>
                <g id="Group-+-Imported-Layers" transform="translate(145.500000, 0.000000)">
                    <g id="Group">
                        <mask id="mask-2" sketch:name="Mask" fill="white">
                            <use xlink:href="#path-1"></use>
                        </mask>
                        <use id="Mask" sketch:type="MSShapeGroup" xlink:href="#path-1"></use>
                    </g>
                    <g id="Imported-Layers" transform="translate(19.635417, 17.152018)" sketch:type="MSShapeGroup">
                        <path d="M4.27782832,14.0907943 L4.62847553,14.9503494 C4.95472306,15.8033224 6.18454634,19.2984594 6.73511363,20.8479818 L7.86458333,20.8479818 C7.84687388,20.805004 7.19516592,19.1002197 6.86773777,18.2882885 L5.95943949,15.9605203 L5.11332107,13.7849165 C5.10426957,13.7616853 5.11056626,13.7345822 5.1290628,13.7171588 C5.38644022,13.4724566 5.84924732,12.6423277 5.50292908,11.7800623 L3.50923796,6.96152005 C3.47303196,6.87130548 3.37385901,6.82639179 3.28098276,6.85814112 C3.23926715,6.87401579 3.20463533,6.90576512 3.18928713,6.94332226 C3.17708729,6.96577911 3.17315185,6.98436408 3.16960996,7.0285034 C3.16960996,7.0285034 3.17157768,7.05289618 3.18023563,7.07767615 L4.44587137,10.7180083 L4.18101663,10.8179026 L2.74025406,7.24106906 C2.70640932,7.15588792 2.60133322,7.11097423 2.51436011,7.14078763 C2.4698897,7.15782386 2.43486434,7.19034757 2.41440008,7.2340997 C2.39747771,7.27204402 2.39590354,7.32315271 2.4100711,7.35954829 C2.41203882,7.36613046 3.50333481,10.5011836 3.6717714,11.0053011 L3.42029714,11.0986131 L1.97402496,7.52487713 C1.93939313,7.4365985 1.83785892,7.39013606 1.74655684,7.42382133 C1.698151,7.44279349 1.66706106,7.47144533 1.64620326,7.51635902 C1.62888735,7.55817522 1.62770672,7.59960423 1.64344846,7.64413073 L2.91105191,11.2860116 L2.65957765,11.3727415 L1.20307334,7.80674927 C1.16883506,7.71963219 1.06533313,7.67626725 0.974031047,7.70917815 C0.961437656,7.71537314 0.936250876,7.72815031 0.918934964,7.74441216 C0.868954945,7.79319772 0.852032577,7.86056826 0.87407101,7.92174381 C0.875251641,7.92445412 2.63084898,13.03842 2.63084898,13.03842 C2.92167759,13.8182146 3.82879524,14.0691118 4.21407428,14.0493653 C4.24201587,14.0482037 4.26798973,14.0648527 4.27782832,14.0907943 Z" id="Fill-1" fill="#F47B00"></path>
                        <path d="M10.3488498,12.1608256 C11.1654402,11.4478679 11.8645833,10.2295033 11.8645833,8.65978219 C11.8645833,6.55505823 10.7451418,4.84949951 9.36347534,4.84798177 C7.98254758,4.84949951 6.86458333,6.55505823 6.86458333,8.65978219 C6.86458333,10.2295033 7.55966385,11.4774638 8.3788395,12.1608256 C8.97235405,12.6559878 9.03809493,13.310892 9.03809493,13.8045365 C9.03809493,15.0843696 8.91843176,18.8995849 8.86746411,20.8479818 L9.90749957,20.8479818 C9.85727058,18.8995849 9.69070241,15.0832312 9.69070241,13.8033982 C9.69070241,13.275984 9.68663977,12.7387046 10.3488498,12.1608256" id="Fill-2" fill="#F47B00"></path>
                        <path d="M3.03125,5.84798177 L3.03125,3.34798177 L15.6979167,3.34798177 L15.6979167,5.84798177 C16.1291323,5.42138011 16.5141287,5.14523171 16.8645833,4.59798177 L16.8645833,2.09798177 C16.8645833,1.55796882 16.1928186,0.847981771 15.6979167,0.847981771 L3.03125,0.847981771 C2.53778732,0.847981771 1.86458333,1.40637287 1.86458333,2.09798177 L1.86458333,5.84798177 C2.61730527,5.22102969 3.03124996,5.84798177 3.03125,5.84798177 Z" id="Fill-3" fill="#F47B00"></path>
                        <path d="M14.1214155,10.3185189 C13.1587525,12.4313561 11.6099535,15.9202928 11.4058945,16.3916993 C11.9813579,16.714777 12.3706921,17.6062599 12.0765569,18.2490184 C11.6560589,19.1680535 10.8645833,20.8479818 10.8645833,20.8479818 L12.0846681,20.8479818 L17.8491202,7.2107837 C17.9169976,7.08057133 17.7419679,6.95073638 17.6992777,6.9314876 C16.7054509,6.49065268 15.2595352,7.82070598 14.1214155,10.3185189 Z" id="Fill-4" fill="#F47B00"></path>
                        <path d="M15.8645833,21.8479818 L2.86458333,21.8479818 L2.86458333,14.8479818 C3.03124996,14.8479818 2.02757714,14.0907854 1.86458333,14.2479818 L1.86458333,23.6479818 C1.86458333,24.3017207 2.53778732,24.8479818 3.03125,24.8479818 L15.6979167,24.8479818 C16.1928186,24.8479818 16.8645833,24.1435428 16.8645833,23.6479818 L16.8645833,12.8479818 L15.8645833,14.8479818 L15.8645833,21.8479818 Z" id="Fill-5" fill="#F47B00"></path>
                        <path d="M9.3638594,22.8479818 C9.08828024,22.8479818 8.86458333,23.0722403 8.86458333,23.3485846 C8.86458333,23.6242055 9.08828024,23.8479818 9.3638594,23.8479818 C9.64136905,23.8479818 9.86458333,23.6244467 9.86458333,23.3485846 C9.86458333,23.0722403 9.64136905,22.8479818 9.3638594,22.8479818" id="Fill-7" fill="#FFFFFF"></path>
                    </g>
                </g>
            </g>
        </g>
    </g>
</svg>